<svg width="1920" height="2500" viewBox="0 0 1920 2500" fill="none" xmlns="http://www.w3.org/2000/svg">
<g clip-path="url(#clip0_257_2)">
<g clip-path="url(#clip1_257_2)">
<mask id="mask0_257_2" style="mask-type:alpha" maskUnits="userSpaceOnUse" x="-88" y="9" width="2005" height="1127">
<rect width="2003.48" height="1126.96" transform="translate(-87.4348 9.04346)" fill="url(#paint0_radial_257_2)"/>
</mask>
<g mask="url(#mask0_257_2)">
<g clip-path="url(#clip2_257_2)">
<line x1="0.941969" y1="-519" x2="0.941969" y2="1364.94" stroke="white" stroke-opacity="0.1" stroke-width="1.88394"/>
<line x1="189.336" y1="-519" x2="189.336" y2="1364.94" stroke="white" stroke-opacity="0.1" stroke-width="1.88394"/>
<line x1="377.73" y1="-519" x2="377.73" y2="1364.94" stroke="white" stroke-opacity="0.1" stroke-width="1.88394"/>
<line x1="566.123" y1="-519" x2="566.123" y2="1364.94" stroke="white" stroke-opacity="0.1" stroke-width="1.88394"/>
<line x1="754.517" y1="-519" x2="754.517" y2="1364.94" stroke="white" stroke-opacity="0.1" stroke-width="1.88394"/>
<line x1="942.911" y1="-519" x2="942.911" y2="1364.94" stroke="white" stroke-opacity="0.1" stroke-width="1.88394"/>
<line x1="1131.3" y1="-519" x2="1131.3" y2="1364.94" stroke="white" stroke-opacity="0.1" stroke-width="1.88394"/>
<line x1="1319.7" y1="-519" x2="1319.7" y2="1364.94" stroke="white" stroke-opacity="0.1" stroke-width="1.88394"/>
<line x1="1508.09" y1="-519" x2="1508.09" y2="1364.94" stroke="white" stroke-opacity="0.1" stroke-width="1.88394"/>
<line x1="1696.49" y1="-519" x2="1696.49" y2="1364.94" stroke="white" stroke-opacity="0.1" stroke-width="1.88394"/>
<line x1="1884.88" y1="-519" x2="1884.88" y2="1364.94" stroke="white" stroke-opacity="0.1" stroke-width="1.88394"/>
</g>
<g clip-path="url(#clip3_257_2)">
<line y1="1057.26" x2="3617.16" y2="1057.26" stroke="white" stroke-opacity="0.1" stroke-width="1.88394"/>
<line y1="868.868" x2="3617.16" y2="868.868" stroke="white" stroke-opacity="0.1" stroke-width="1.88394"/>
<line y1="680.474" x2="3617.16" y2="680.474" stroke="white" stroke-opacity="0.1" stroke-width="1.88394"/>
<line y1="492.08" x2="3617.16" y2="492.08" stroke="white" stroke-opacity="0.1" stroke-width="1.88394"/>
<line y1="303.686" x2="3617.16" y2="303.686" stroke="white" stroke-opacity="0.1" stroke-width="1.88394"/>
<line y1="115.293" x2="3617.16" y2="115.293" stroke="white" stroke-opacity="0.1" stroke-width="1.88394"/>
</g>
</g>
<mask id="mask1_257_2" style="mask-type:alpha" maskUnits="userSpaceOnUse" x="-115" y="8" width="2004" height="1127">
<rect width="2003.48" height="1126.96" transform="matrix(1 0 0 -1 -114.565 1134.96)" fill="url(#paint1_radial_257_2)"/>
</mask>
<g mask="url(#mask1_257_2)">
<g clip-path="url(#clip4_257_2)">
<line x1="0.941969" y1="-519" x2="0.941969" y2="1364.94" stroke="white" stroke-opacity="0.1" stroke-width="1.88394"/>
<line x1="189.336" y1="-519" x2="189.336" y2="1364.94" stroke="white" stroke-opacity="0.1" stroke-width="1.88394"/>
<line x1="377.73" y1="-519" x2="377.73" y2="1364.94" stroke="white" stroke-opacity="0.1" stroke-width="1.88394"/>
<line x1="566.123" y1="-519" x2="566.123" y2="1364.94" stroke="white" stroke-opacity="0.1" stroke-width="1.88394"/>
<line x1="754.517" y1="-519" x2="754.517" y2="1364.94" stroke="white" stroke-opacity="0.1" stroke-width="1.88394"/>
<line x1="942.911" y1="-519" x2="942.911" y2="1364.94" stroke="white" stroke-opacity="0.1" stroke-width="1.88394"/>
<line x1="1131.3" y1="-519" x2="1131.3" y2="1364.94" stroke="white" stroke-opacity="0.1" stroke-width="1.88394"/>
<line x1="1319.7" y1="-519" x2="1319.7" y2="1364.94" stroke="white" stroke-opacity="0.1" stroke-width="1.88394"/>
<line x1="1508.09" y1="-519" x2="1508.09" y2="1364.94" stroke="white" stroke-opacity="0.1" stroke-width="1.88394"/>
<line x1="1696.49" y1="-519" x2="1696.49" y2="1364.94" stroke="white" stroke-opacity="0.1" stroke-width="1.88394"/>
<line x1="1884.88" y1="-519" x2="1884.88" y2="1364.94" stroke="white" stroke-opacity="0.1" stroke-width="1.88394"/>
</g>
<g clip-path="url(#clip5_257_2)">
<line y1="1057.26" x2="3617.16" y2="1057.26" stroke="white" stroke-opacity="0.1" stroke-width="1.88394"/>
<line y1="868.868" x2="3617.16" y2="868.868" stroke="white" stroke-opacity="0.1" stroke-width="1.88394"/>
<line y1="680.474" x2="3617.16" y2="680.474" stroke="white" stroke-opacity="0.1" stroke-width="1.88394"/>
<line y1="492.08" x2="3617.16" y2="492.08" stroke="white" stroke-opacity="0.1" stroke-width="1.88394"/>
<line y1="303.686" x2="3617.16" y2="303.686" stroke="white" stroke-opacity="0.1" stroke-width="1.88394"/>
<line y1="115.293" x2="3617.16" y2="115.293" stroke="white" stroke-opacity="0.1" stroke-width="1.88394"/>
</g>
</g>
<mask id="mask2_257_2" style="mask-type:alpha" maskUnits="userSpaceOnUse" x="-115" y="8" width="2004" height="1127">
<rect width="2003.48" height="1126.96" transform="matrix(1 0 0 -1 -114.565 1134.96)" fill="url(#paint2_radial_257_2)"/>
</mask>
<g mask="url(#mask2_257_2)">
<g clip-path="url(#clip6_257_2)">
<line x1="0.941969" y1="-519" x2="0.941969" y2="1364.94" stroke="white" stroke-opacity="0.1" stroke-width="1.88394"/>
<line x1="189.336" y1="-519" x2="189.336" y2="1364.94" stroke="white" stroke-opacity="0.1" stroke-width="1.88394"/>
<line x1="377.73" y1="-519" x2="377.73" y2="1364.94" stroke="white" stroke-opacity="0.1" stroke-width="1.88394"/>
<line x1="566.123" y1="-519" x2="566.123" y2="1364.94" stroke="white" stroke-opacity="0.1" stroke-width="1.88394"/>
<line x1="754.517" y1="-519" x2="754.517" y2="1364.94" stroke="white" stroke-opacity="0.1" stroke-width="1.88394"/>
<line x1="942.911" y1="-519" x2="942.911" y2="1364.94" stroke="white" stroke-opacity="0.1" stroke-width="1.88394"/>
<line x1="1131.3" y1="-519" x2="1131.3" y2="1364.94" stroke="white" stroke-opacity="0.1" stroke-width="1.88394"/>
<line x1="1319.7" y1="-519" x2="1319.7" y2="1364.94" stroke="white" stroke-opacity="0.1" stroke-width="1.88394"/>
<line x1="1508.09" y1="-519" x2="1508.09" y2="1364.94" stroke="white" stroke-opacity="0.1" stroke-width="1.88394"/>
<line x1="1696.49" y1="-519" x2="1696.49" y2="1364.94" stroke="white" stroke-opacity="0.1" stroke-width="1.88394"/>
<line x1="1884.88" y1="-519" x2="1884.88" y2="1364.94" stroke="white" stroke-opacity="0.1" stroke-width="1.88394"/>
</g>
<g clip-path="url(#clip7_257_2)">
<line y1="1057.26" x2="3617.16" y2="1057.26" stroke="white" stroke-opacity="0.1" stroke-width="1.88394"/>
<line y1="868.868" x2="3617.16" y2="868.868" stroke="white" stroke-opacity="0.1" stroke-width="1.88394"/>
<line y1="680.474" x2="3617.16" y2="680.474" stroke="white" stroke-opacity="0.1" stroke-width="1.88394"/>
<line y1="492.08" x2="3617.16" y2="492.08" stroke="white" stroke-opacity="0.1" stroke-width="1.88394"/>
<line y1="303.686" x2="3617.16" y2="303.686" stroke="white" stroke-opacity="0.1" stroke-width="1.88394"/>
<line y1="115.293" x2="3617.16" y2="115.293" stroke="white" stroke-opacity="0.1" stroke-width="1.88394"/>
</g>
</g>
<mask id="mask3_257_2" style="mask-type:alpha" maskUnits="userSpaceOnUse" x="-115" y="8" width="2004" height="1127">
<rect width="2003.48" height="1126.96" transform="matrix(1 0 0 -1 -114.565 1134.96)" fill="url(#paint3_radial_257_2)"/>
</mask>
<g mask="url(#mask3_257_2)">
<g clip-path="url(#clip8_257_2)">
<line x1="0.941969" y1="-519" x2="0.941969" y2="1364.94" stroke="white" stroke-opacity="0.1" stroke-width="1.88394"/>
<line x1="189.336" y1="-519" x2="189.336" y2="1364.94" stroke="white" stroke-opacity="0.1" stroke-width="1.88394"/>
<line x1="377.73" y1="-519" x2="377.73" y2="1364.94" stroke="white" stroke-opacity="0.1" stroke-width="1.88394"/>
<line x1="566.123" y1="-519" x2="566.123" y2="1364.94" stroke="white" stroke-opacity="0.1" stroke-width="1.88394"/>
<line x1="754.517" y1="-519" x2="754.517" y2="1364.94" stroke="white" stroke-opacity="0.1" stroke-width="1.88394"/>
<line x1="942.911" y1="-519" x2="942.911" y2="1364.94" stroke="white" stroke-opacity="0.1" stroke-width="1.88394"/>
<line x1="1131.3" y1="-519" x2="1131.3" y2="1364.94" stroke="white" stroke-opacity="0.1" stroke-width="1.88394"/>
<line x1="1319.7" y1="-519" x2="1319.7" y2="1364.94" stroke="white" stroke-opacity="0.1" stroke-width="1.88394"/>
<line x1="1508.09" y1="-519" x2="1508.09" y2="1364.94" stroke="white" stroke-opacity="0.1" stroke-width="1.88394"/>
<line x1="1696.49" y1="-519" x2="1696.49" y2="1364.94" stroke="white" stroke-opacity="0.1" stroke-width="1.88394"/>
<line x1="1884.88" y1="-519" x2="1884.88" y2="1364.94" stroke="white" stroke-opacity="0.1" stroke-width="1.88394"/>
</g>
<g clip-path="url(#clip9_257_2)">
<line y1="1057.26" x2="3617.16" y2="1057.26" stroke="white" stroke-opacity="0.1" stroke-width="1.88394"/>
<line y1="868.868" x2="3617.16" y2="868.868" stroke="white" stroke-opacity="0.1" stroke-width="1.88394"/>
<line y1="680.474" x2="3617.16" y2="680.474" stroke="white" stroke-opacity="0.1" stroke-width="1.88394"/>
<line y1="492.08" x2="3617.16" y2="492.08" stroke="white" stroke-opacity="0.1" stroke-width="1.88394"/>
<line y1="303.686" x2="3617.16" y2="303.686" stroke="white" stroke-opacity="0.1" stroke-width="1.88394"/>
<line y1="115.293" x2="3617.16" y2="115.293" stroke="white" stroke-opacity="0.1" stroke-width="1.88394"/>
</g>
</g>
<mask id="mask4_257_2" style="mask-type:alpha" maskUnits="userSpaceOnUse" x="-115" y="2000" width="2004" height="1127">
<rect width="2003.48" height="1126.96" transform="matrix(1 0 0 -1 -114.565 3126.96)" fill="url(#paint4_radial_257_2)"/>
</mask>
<g mask="url(#mask4_257_2)">
<g clip-path="url(#clip10_257_2)">
<line x1="0.941969" y1="1473" x2="0.941969" y2="3356.94" stroke="white" stroke-opacity="0.1" stroke-width="1.88394"/>
<line x1="189.336" y1="1473" x2="189.336" y2="3356.94" stroke="white" stroke-opacity="0.1" stroke-width="1.88394"/>
<line x1="377.73" y1="1473" x2="377.73" y2="3356.94" stroke="white" stroke-opacity="0.1" stroke-width="1.88394"/>
<line x1="566.123" y1="1473" x2="566.123" y2="3356.94" stroke="white" stroke-opacity="0.1" stroke-width="1.88394"/>
<line x1="754.517" y1="1473" x2="754.517" y2="3356.94" stroke="white" stroke-opacity="0.1" stroke-width="1.88394"/>
<line x1="942.911" y1="1473" x2="942.911" y2="3356.94" stroke="white" stroke-opacity="0.1" stroke-width="1.88394"/>
<line x1="1131.3" y1="1473" x2="1131.3" y2="3356.94" stroke="white" stroke-opacity="0.1" stroke-width="1.88394"/>
<line x1="1319.7" y1="1473" x2="1319.7" y2="3356.94" stroke="white" stroke-opacity="0.1" stroke-width="1.88394"/>
<line x1="1508.09" y1="1473" x2="1508.09" y2="3356.94" stroke="white" stroke-opacity="0.1" stroke-width="1.88394"/>
<line x1="1696.49" y1="1473" x2="1696.49" y2="3356.94" stroke="white" stroke-opacity="0.1" stroke-width="1.88394"/>
<line x1="1884.88" y1="1473" x2="1884.88" y2="3356.94" stroke="white" stroke-opacity="0.1" stroke-width="1.88394"/>
</g>
<g clip-path="url(#clip11_257_2)">
<line y1="2484.08" x2="3617.16" y2="2484.08" stroke="white" stroke-opacity="0.1" stroke-width="1.88394"/>
<line y1="2295.69" x2="3617.16" y2="2295.69" stroke="white" stroke-opacity="0.1" stroke-width="1.88394"/>
<line y1="2107.29" x2="3617.16" y2="2107.29" stroke="white" stroke-opacity="0.1" stroke-width="1.88394"/>
</g>
</g>
<mask id="mask5_257_2" style="mask-type:alpha" maskUnits="userSpaceOnUse" x="-115" y="1000" width="2004" height="1127">
<rect width="2003.48" height="1126.96" transform="matrix(1 0 0 -1 -114.565 2126.96)" fill="url(#paint5_radial_257_2)"/>
</mask>
<g mask="url(#mask5_257_2)">
<g clip-path="url(#clip12_257_2)">
<line x1="0.941969" y1="473" x2="0.941969" y2="2356.94" stroke="white" stroke-opacity="0.1" stroke-width="1.88394"/>
<line x1="189.336" y1="473" x2="189.336" y2="2356.94" stroke="white" stroke-opacity="0.1" stroke-width="1.88394"/>
<line x1="377.73" y1="473" x2="377.73" y2="2356.94" stroke="white" stroke-opacity="0.1" stroke-width="1.88394"/>
<line x1="566.123" y1="473" x2="566.123" y2="2356.94" stroke="white" stroke-opacity="0.1" stroke-width="1.88394"/>
<line x1="754.517" y1="473" x2="754.517" y2="2356.94" stroke="white" stroke-opacity="0.1" stroke-width="1.88394"/>
<line x1="942.911" y1="473" x2="942.911" y2="2356.94" stroke="white" stroke-opacity="0.1" stroke-width="1.88394"/>
<line x1="1131.3" y1="473" x2="1131.3" y2="2356.94" stroke="white" stroke-opacity="0.1" stroke-width="1.88394"/>
<line x1="1319.7" y1="473" x2="1319.7" y2="2356.94" stroke="white" stroke-opacity="0.1" stroke-width="1.88394"/>
<line x1="1508.09" y1="473" x2="1508.09" y2="2356.94" stroke="white" stroke-opacity="0.1" stroke-width="1.88394"/>
<line x1="1696.49" y1="473" x2="1696.49" y2="2356.94" stroke="white" stroke-opacity="0.1" stroke-width="1.88394"/>
<line x1="1884.88" y1="473" x2="1884.88" y2="2356.94" stroke="white" stroke-opacity="0.1" stroke-width="1.88394"/>
</g>
<g clip-path="url(#clip13_257_2)">
<line y1="2049.26" x2="3617.16" y2="2049.26" stroke="white" stroke-opacity="0.1" stroke-width="1.88394"/>
<line y1="1860.87" x2="3617.16" y2="1860.87" stroke="white" stroke-opacity="0.1" stroke-width="1.88394"/>
<line y1="1672.47" x2="3617.16" y2="1672.47" stroke="white" stroke-opacity="0.1" stroke-width="1.88394"/>
<line y1="1484.08" x2="3617.16" y2="1484.08" stroke="white" stroke-opacity="0.1" stroke-width="1.88394"/>
<line y1="1295.69" x2="3617.16" y2="1295.69" stroke="white" stroke-opacity="0.1" stroke-width="1.88394"/>
<line y1="1107.29" x2="3617.16" y2="1107.29" stroke="white" stroke-opacity="0.1" stroke-width="1.88394"/>
</g>
</g>
</g>
</g>
<defs>
<radialGradient id="paint0_radial_257_2" cx="0" cy="0" r="1" gradientUnits="userSpaceOnUse" gradientTransform="translate(755.478 -3.18225e-06) rotate(67.3575) scale(1221.07 2170.79)">
<stop stop-opacity="0.6"/>
<stop offset="0.352797" stop-opacity="0.0528408"/>
</radialGradient>
<radialGradient id="paint1_radial_257_2" cx="0" cy="0" r="1" gradientUnits="userSpaceOnUse" gradientTransform="rotate(29.3578) scale(2298.69 4086.55)">
<stop stop-opacity="0.6"/>
<stop offset="0.268487" stop-opacity="0"/>
</radialGradient>
<radialGradient id="paint2_radial_257_2" cx="0" cy="0" r="1" gradientUnits="userSpaceOnUse" gradientTransform="translate(1001.57 16.4566) rotate(47.9427) scale(1495.67 2658.98)">
<stop offset="0.00252029" stop-opacity="0.6"/>
<stop offset="0.222618" stop-opacity="0"/>
</radialGradient>
<radialGradient id="paint3_radial_257_2" cx="0" cy="0" r="1" gradientUnits="userSpaceOnUse" gradientTransform="translate(1131.07 605.957) rotate(30.8454) scale(1016.14 1806.48)">
<stop offset="0.00252029" stop-opacity="0.6"/>
<stop offset="0.0840107" stop-opacity="0"/>
</radialGradient>
<radialGradient id="paint4_radial_257_2" cx="0" cy="0" r="1" gradientUnits="userSpaceOnUse" gradientTransform="translate(610.565 497.957) rotate(24.3026) scale(1528.35 2717.06)">
<stop offset="0.00252029" stop-opacity="0.6"/>
<stop offset="0.278997" stop-opacity="0"/>
</radialGradient>
<radialGradient id="paint5_radial_257_2" cx="0" cy="0" r="1" gradientUnits="userSpaceOnUse" gradientTransform="translate(1642.07 309.957) rotate(66.137) scale(893.369 1588.21)">
<stop offset="0.00252029" stop-opacity="0.6"/>
<stop offset="0.610763" stop-opacity="0"/>
</radialGradient>
<clipPath id="clip0_257_2">
<rect width="1920" height="2500" fill="white"/>
</clipPath>
<clipPath id="clip1_257_2">
<rect width="1920" height="2500" fill="white"/>
</clipPath>
<clipPath id="clip2_257_2">
<rect width="3617.16" height="1770.9" fill="white" transform="translate(0 -519)"/>
</clipPath>
<clipPath id="clip3_257_2">
<rect width="1770.9" height="3617.16" fill="white" transform="matrix(0 -1 1 0 0 1246.6)"/>
</clipPath>
<clipPath id="clip4_257_2">
<rect width="3617.16" height="1770.9" fill="white" transform="translate(0 -519)"/>
</clipPath>
<clipPath id="clip5_257_2">
<rect width="1770.9" height="3617.16" fill="white" transform="matrix(0 -1 1 0 0 1246.6)"/>
</clipPath>
<clipPath id="clip6_257_2">
<rect width="3617.16" height="1770.9" fill="white" transform="translate(0 -519)"/>
</clipPath>
<clipPath id="clip7_257_2">
<rect width="1770.9" height="3617.16" fill="white" transform="matrix(0 -1 1 0 0 1246.6)"/>
</clipPath>
<clipPath id="clip8_257_2">
<rect width="3617.16" height="1770.9" fill="white" transform="translate(0 -519)"/>
</clipPath>
<clipPath id="clip9_257_2">
<rect width="1770.9" height="3617.16" fill="white" transform="matrix(0 -1 1 0 0 1246.6)"/>
</clipPath>
<clipPath id="clip10_257_2">
<rect width="3617.16" height="1770.9" fill="white" transform="translate(0 1473)"/>
</clipPath>
<clipPath id="clip11_257_2">
<rect width="1770.9" height="3617.16" fill="white" transform="matrix(0 -1 1 0 0 3238.6)"/>
</clipPath>
<clipPath id="clip12_257_2">
<rect width="3617.16" height="1770.9" fill="white" transform="translate(0 473)"/>
</clipPath>
<clipPath id="clip13_257_2">
<rect width="1770.9" height="3617.16" fill="white" transform="matrix(0 -1 1 0 0 2238.6)"/>
</clipPath>
</defs>
</svg>
