<svg width="2000" height="1598" viewBox="0 0 2000 1598" fill="none" xmlns="http://www.w3.org/2000/svg">
<g clip-path="url(#clip0_309_800)">
<path d="M1276.02 1542.79H1270.41L1266.9 1540.69V1535.07L1276.02 1542.79ZM1243.02 1527.35L1248.64 1533.67L1245.83 1535.07L1253.55 1541.39L1249.34 1547.01L1243.72 1548.41L1239.51 1542.09L1238.11 1534.37L1243.02 1527.35ZM1257.77 1530.16L1253.55 1530.86L1245.83 1521.73L1256.36 1525.94L1257.77 1530.16ZM1227.57 1497.86L1223.36 1498.56L1216.34 1496.45L1217.04 1490.13L1227.57 1497.86ZM1048.52 1495.75L1044.31 1495.05L1042.2 1490.13L1049.92 1491.54L1048.52 1495.75ZM1061.16 1497.15L1054.84 1496.45L1051.33 1490.83L1056.24 1485.92L1061.86 1489.43L1061.16 1497.15ZM1040.09 1481L1037.99 1483.81L1027.46 1481L1026.75 1468.36L1034.48 1466.26L1038.69 1470.47L1040.09 1481ZM1253.55 1473.28L1250.04 1468.36L1254.96 1463.45L1257.06 1469.07L1253.55 1473.28ZM1177.72 1452.21L1185.44 1453.62L1190.36 1457.83L1178.42 1458.53L1177.72 1452.21ZM1257.77 1455.73L1255.66 1460.64L1246.53 1456.43L1250.04 1450.11L1254.96 1449.41L1257.77 1455.73ZM1155.95 1450.11L1150.33 1454.32L1149.63 1448L1155.95 1450.11ZM1148.93 1455.73L1144.72 1455.02L1138.4 1448.7L1141.21 1443.79L1148.93 1455.73ZM1202.3 1419.91L1198.08 1424.13L1195.27 1431.85L1191.06 1433.96L1187.55 1428.34L1192.47 1423.43L1202.3 1419.91ZM1177.72 1431.15L1182.63 1439.58L1190.36 1447.3L1188.25 1450.81L1173.51 1440.98L1169.29 1440.28L1166.48 1432.55L1155.25 1426.94L1151.04 1423.43L1151.74 1416.4L1155.25 1417.81L1159.46 1422.72L1172.8 1426.94L1177.72 1431.15ZM986.027 1410.08H990.24L994.453 1422.02L996.56 1437.47L991.644 1442.38L981.112 1438.17L972.686 1430.45L971.281 1424.13L974.09 1419.21L968.473 1412.89L984.623 1406.57L986.027 1410.08ZM1126.46 1389.72L1120.14 1376.38L1125.76 1370.06L1129.97 1371.46L1132.78 1384.1L1127.16 1386.21L1126.46 1389.72ZM1111.72 1391.83L1109.61 1391.13L1106.1 1381.3L1099.08 1374.27L1096.97 1362.34L1101.18 1356.02L1110.31 1363.74L1111.72 1368.66L1106.8 1375.68L1110.31 1383.4L1111.72 1391.83ZM1139.1 1365.85L1144.02 1371.46L1136.99 1377.08L1132.78 1368.66L1130.67 1367.25L1127.16 1359.53L1131.38 1354.61L1139.1 1358.83V1362.34V1365.85ZM1146.12 1354.61L1151.04 1359.53V1368.66L1144.72 1367.25L1139.1 1362.34L1141.21 1358.12L1146.12 1354.61ZM1108.91 1344.08L1120.84 1365.15L1113.82 1370.76V1363.74L1111.01 1361.63L1107.5 1353.21L1103.29 1351.8L1094.16 1355.31L1093.46 1348.99H1099.78L1101.89 1337.76L1108.91 1344.08ZM1084.33 1341.27L1073.8 1344.78L1070.29 1341.27L1077.31 1337.76H1082.93L1084.33 1341.27ZM1091.35 1347.59L1085.74 1348.29L1081.52 1345.48L1086.44 1339.17L1095.57 1334.95L1098.37 1338.46L1091.35 1347.59ZM1062.56 1341.27L1049.22 1339.87L1054.14 1334.95L1060.46 1333.55L1065.37 1338.46L1062.56 1341.27ZM1026.75 1323.02L1021.14 1325.82L1009.9 1327.93L998.666 1324.42L1016.22 1320.21L1022.54 1317.4L1026.75 1323.02ZM1015.52 1317.4L1006.39 1320.21L1001.47 1315.99L1014.82 1313.89L1015.52 1317.4ZM962.855 1309.67H974.09V1315.29L962.855 1312.48L956.536 1313.89L957.238 1308.97L962.855 1309.67ZM1030.26 1299.84L1026.75 1301.95L1022.54 1311.08L1010.6 1308.97L1009.2 1311.78L997.262 1311.08L998.666 1305.46L1013.41 1291.42L1023.94 1289.31L1030.26 1299.84ZM996.56 1287.91L997.262 1291.42L986.729 1295.63L977.601 1294.23L973.388 1290.01L979.708 1287.91H996.56ZM896.149 1284.4L920.725 1293.52L925.64 1296.33L928.449 1305.46L934.066 1304.06L945.301 1311.08L950.216 1315.29L957.238 1315.99L957.94 1318.1L967.771 1320.21L984.623 1324.42L995.155 1329.33L1008.5 1333.55L1016.22 1332.14L1023.94 1334.25H1029.56L1035.88 1335.65L1048.52 1343.38L1058.35 1344.08L1066.07 1348.29L1078.01 1346.19L1086.44 1350.4L1089.95 1353.21L1096.97 1377.08L1100.48 1379.19L1106.8 1390.42L1110.31 1401.66L1134.18 1426.23L1131.38 1438.87L1140.5 1457.13L1146.12 1457.83L1153.14 1464.85L1160.87 1468.36L1174.91 1471.17L1187.55 1476.79H1191.06L1198.08 1484.51L1207.21 1486.62L1209.32 1497.15L1218.45 1499.96L1223.36 1509.09L1221.25 1516.11L1236 1534.37L1238.11 1540.69L1238.81 1549.11L1240.91 1552.62L1240.21 1558.24H1245.13L1251.45 1552.62L1252.15 1560.35L1256.36 1573.69L1259.17 1576.5L1260.58 1583.52L1254.96 1586.33L1248.64 1581.41L1238.81 1595.46L1231.08 1596.86L1221.25 1591.24L1212.13 1590.54L1193.17 1582.82L1172.8 1572.29V1567.37L1168.59 1566.67L1165.08 1569.48L1151.04 1565.97L1139.1 1556.84L1117.33 1547.01L1109.61 1538.58L1117.33 1530.16L1123.65 1526.64L1125.76 1519.62L1130.67 1517.52L1139.1 1507.69L1134.89 1505.58L1133.48 1512.6L1127.16 1516.11L1117.33 1516.81L1113.12 1514.71L1106.8 1519.62L1095.57 1516.11L1087.84 1523.84L1085.74 1524.54L1075.2 1518.22L1066.07 1507.69L1058.35 1506.28L1059.75 1499.26L1065.37 1501.37L1073.1 1494.34L1068.88 1492.24L1058.35 1481H1052.73L1048.52 1485.92L1042.9 1481L1044.31 1475.39L1039.39 1467.66L1040.8 1460.64L1024.65 1465.56L1022.54 1470.47L1013.41 1463.45L1012.01 1457.83L1006.39 1461.34L1008.5 1466.26L1004.99 1468.36L1000.07 1464.15L1000.77 1450.11V1443.09L1009.2 1436.77L1018.33 1437.47L1034.48 1435.36L1029.56 1431.15L1018.33 1435.36L1009.2 1432.55L1007.09 1427.64L1000.07 1428.34L997.262 1425.53L994.453 1415L993.751 1405.17L989.538 1407.28L984.623 1403.06L978.303 1405.87L971.281 1406.57L970.579 1409.38L954.429 1408.68L948.11 1398.85L947.408 1395.34L953.025 1383.4L944.599 1374.27L943.195 1384.81L936.875 1388.32L934.066 1386.91L929.151 1381.3L927.045 1376.38L917.214 1377.78L914.406 1370.06L903.873 1382L894.745 1378.49V1374.98L904.575 1363.74L898.256 1357.42L901.767 1356.02L896.149 1349.7L893.341 1352.51L889.127 1349.7L893.341 1334.25L897.554 1335.65L906.682 1332.14H919.321L926.343 1321.61L917.214 1317.4L901.064 1316.7L902.469 1318.8H911.597L918.619 1323.02L899.66 1331.44L887.021 1333.55L882.106 1336.36L869.467 1326.53L866.658 1318.1L861.041 1316.7L859.636 1309.67L856.828 1306.86L854.721 1294.93L862.445 1292.82L871.573 1287.2L874.382 1287.91L880.701 1283.69L884.915 1285.1L896.149 1284.4ZM985.325 1285.8L973.388 1287.91L981.112 1281.59L985.325 1285.8ZM913.703 1287.91L901.064 1284.4L899.66 1281.59L909.49 1278.78L913.001 1282.29L913.703 1287.91ZM899.66 1278.78L892.638 1280.88L893.341 1275.27L899.66 1278.78ZM896.149 1207.16V1211.37L891.234 1214.18L886.319 1208.56L879.999 1205.75L874.382 1188.2L878.595 1181.18L885.617 1175.56L888.425 1184.69L892.638 1191.71L893.341 1201.54L896.149 1207.16ZM853.317 1149.58L847.699 1146.07L854.019 1142.56L853.317 1149.58ZM889.127 1132.03L890.532 1141.85L887.723 1151.69L883.51 1160.11L885.617 1166.43L884.212 1170.64L875.786 1172.75L877.191 1165.73L875.786 1158.71L866.658 1157.3L870.871 1150.98L868.765 1146.07L873.68 1135.54L877.893 1133.43L889.127 1132.03ZM647.581 1126.41L652.496 1127.81L644.07 1134.13L648.283 1142.56L639.857 1139.75L638.453 1127.81L639.857 1121.49L647.581 1126.41ZM896.149 1117.98L891.234 1128.51L878.595 1127.81L880.701 1121.49L883.51 1118.68L896.149 1117.98ZM869.467 1137.64L863.147 1126.41L868.062 1115.87H874.382V1127.81L869.467 1137.64ZM864.552 1109.56L865.254 1114.47L862.445 1122.9L855.423 1120.09L853.317 1123.6L844.891 1120.09L851.21 1109.56H864.552ZM889.83 1101.83L894.043 1114.47L891.936 1117.28L880.701 1116.58L877.191 1108.85L872.978 1107.45L882.106 1101.13L889.83 1101.83ZM936.875 1106.75L933.364 1107.45L927.747 1113.07L920.725 1115.87L915.108 1122.19L910.193 1134.83L910.895 1139.75L905.277 1143.26L895.447 1146.07L894.745 1139.75L896.149 1129.22L901.064 1115.17L906.682 1108.15L913.001 1107.45L925.64 1099.72L933.364 1089.19L946.705 1084.98L947.408 1092.7L949.514 1094.81L943.897 1102.53L936.875 1106.75ZM832.954 1077.96L837.167 1080.06L837.869 1091.3L835.06 1102.53L828.741 1098.32L825.932 1084.98L826.634 1079.36L832.954 1077.96ZM844.891 1062.51L849.104 1076.55L848.402 1082.87L844.189 1083.58L832.954 1075.15L828.039 1073.04L829.443 1062.51H844.891ZM597.025 1046.36L604.748 1049.17L611.77 1044.96L613.877 1049.17L611.77 1057.59L608.259 1058.3L603.344 1054.08L599.833 1061.81L597.727 1054.08L593.514 1049.17L597.025 1046.36ZM856.828 1091.3L851.912 1092L849.806 1087.79L854.721 1079.36L851.912 1071.64L850.508 1058.3L853.317 1047.06L851.21 1043.55L856.828 1036.53L858.934 1047.06L861.041 1050.57L861.743 1063.91L864.552 1076.55L861.743 1084.28L856.828 1091.3ZM802.761 1048.47L811.889 1058.3L813.293 1061.81V1071.64L808.378 1077.96L806.271 1071.64L802.761 1072.34L792.93 1059L784.504 1040.74L787.313 1032.32L799.25 1043.55L802.761 1048.47ZM866.658 1059.7L863.147 1053.38L863.849 1049.17L861.041 1039.34L869.467 1036.53L870.871 1042.15L866.658 1059.7ZM850.508 1037.23L848.402 1038.64L849.104 1048.47L843.486 1046.36L846.295 1028.1L849.806 1030.91L850.508 1037.23ZM552.086 1013.36L543.66 1014.06L540.851 1009.15L551.384 1010.55L552.086 1013.36ZM760.63 1000.02L752.204 998.613L748.693 992.293L754.311 991.591L760.63 1000.02ZM774.674 991.591L778.887 999.315L782.398 1002.83L784.504 1009.85L780.291 1013.36L776.078 1009.85L769.759 999.315L769.056 995.102L763.439 990.888L766.95 984.569L770.461 985.271L774.674 991.591ZM585.79 976.143L587.896 983.866L586.492 988.08L592.812 990.888L598.429 996.506L600.535 1002.12L591.407 1002.83L582.981 1000.02L582.279 1003.53L589.301 1007.04L599.131 1009.85L601.94 1012.66L599.833 1020.38L593.514 1026H583.683L580.875 1027.4L582.981 1035.83L587.896 1038.64L582.981 1045.66L590.705 1049.17L594.216 1055.49L592.812 1059L596.322 1064.62V1069.53L601.94 1073.04L611.77 1074.45L610.366 1077.26L615.983 1081.47L613.877 1087.79L620.898 1092.7L622.303 1084.28L629.324 1085.68L624.409 1091.3L622.303 1101.83L627.92 1102.53L637.751 1099.02L641.964 1104.64L642.666 1111.66L648.283 1110.96L645.474 1117.98L639.155 1116.58L634.942 1124.3L625.814 1120.79L624.409 1115.87L618.792 1113.77L607.557 1097.62H604.748L601.238 1085.68L594.918 1076.55L588.599 1073.74L578.768 1065.32L574.555 1055.49L568.938 1051.98L559.107 1042.15L550.681 1031.61L552.086 1027.4L546.468 1025.29L542.255 1017.57L550.681 1016.17L554.894 1019.68L557.703 1016.17L554.894 1009.85L551.384 1006.34H542.255L535.936 1004.23H529.616L526.808 989.484L533.127 992.293H540.149L545.064 988.782L549.979 989.484L564.023 988.782L571.044 981.76L577.364 978.25L585.79 976.143ZM837.167 989.484L844.189 1007.04L845.593 1018.27L844.189 1030.21L838.571 1061.11L826.634 1061.81L828.039 1054.79L827.336 1043.55L830.145 1031.61L835.06 1021.78L827.336 1021.08L828.741 1028.81L826.634 1031.61L825.23 1044.96L826.634 1051.28L818.91 1054.79L813.293 1052.68L802.761 1043.55L797.143 1027.4L799.25 1022.49L793.632 1018.27L792.228 1007.04L795.037 1000.02L799.952 997.91L800.654 983.164L802.058 981.76L801.356 969.823L805.569 968.419L814.697 971.228L823.826 981.058L830.847 986.675L837.167 989.484ZM796.441 995.804L788.015 996.506L780.993 992.293L781.695 980.356L787.313 972.632L785.206 966.312L792.93 968.419L795.037 981.058L794.334 985.271L796.441 995.804ZM813.995 963.504L810.484 967.015L806.271 964.908L797.845 967.717L795.739 961.397L802.058 950.163V945.247L805.569 938.928L813.995 955.78V963.504ZM709.372 934.012L722.011 944.545L730.437 949.461L737.459 957.184L738.863 961.397L748.693 978.952L747.991 987.377L741.672 985.271L739.565 988.782L732.544 987.377L727.628 976.845L722.011 974.037L721.309 968.419L715.691 964.908L710.776 958.588L703.052 957.886L693.924 941.034L686.2 935.417V929.098L689.009 924.885L692.52 925.587L709.372 934.012ZM816.804 931.204L809.08 931.906L799.952 942.439V950.163H793.632L795.037 938.928L794.334 926.289L802.761 918.565L807.676 916.458H815.4L819.613 914.352L816.804 926.991V931.204ZM719.904 929.8L714.287 931.204L707.968 930.502L701.648 926.991L696.031 918.565L705.159 909.436L710.776 906.628V914.352L717.096 916.458L719.904 929.8ZM692.52 903.82L688.307 908.032L679.881 903.82L682.689 898.202L692.52 903.82ZM747.289 920.671L753.609 931.204L773.269 952.269L775.376 957.184L780.993 962.099V974.739L778.887 977.548L775.376 965.61L771.163 970.526L766.95 968.419L769.056 980.356L762.035 981.058L755.013 969.121L744.48 959.993L741.672 955.078L742.374 948.758L736.054 946.652L738.161 938.928L733.246 929.8L725.522 932.608L720.607 922.076V915.756L712.181 912.947V903.117L705.159 898.202L706.563 891.882L712.181 887.669L725.522 896.798L733.246 905.926L741.672 912.245L747.289 920.671ZM707.265 874.328L709.372 879.946L708.67 884.861L704.457 889.776L700.244 898.202H696.733L691.818 889.776L695.328 882.755L691.818 881.35L690.413 888.371H684.796L679.881 882.052H674.263L672.157 886.967L677.072 891.882L676.37 898.202L671.455 895.393L670.753 886.967L674.966 877.839L679.881 872.924L696.733 863.795L700.946 866.604L707.265 874.328ZM490.295 854.668L507.849 859.583L518.382 857.476L523.999 860.285L526.105 870.817L533.127 868.008L537.34 863.093L545.766 860.987L550.681 866.604V871.519L557.703 877.137L557.001 885.563L560.512 892.584L558.405 897.5L554.192 898.904L550.681 906.628L540.149 908.734L535.234 912.947L528.212 916.458H519.084L524.701 922.076L530.318 924.182L538.745 920.671L539.447 923.48L546.468 926.991L545.766 919.969L553.49 922.778L557.001 916.458L554.192 906.628L560.512 897.5L563.32 891.18L560.512 886.967L559.107 872.222L566.129 873.626L575.96 870.817L592.812 860.285L595.62 865.902L593.514 877.839L589.301 887.669L583.683 896.095L579.47 905.926V914.352L574.555 927.693L575.96 934.714L573.853 940.332L575.96 949.461L576.662 962.099L572.449 972.632L568.938 976.143H561.916L551.384 979.654L549.979 983.866L559.107 983.164L554.192 988.782L544.362 987.377L538.042 990.186L532.425 989.484L523.297 982.462L523.999 978.952L514.169 972.632L520.488 969.823L524.701 964.908L509.253 967.717L512.764 960.695L527.51 961.397L532.425 966.312L535.936 963.504L530.318 959.993L528.212 955.078L518.382 952.269L509.253 948.056L502.934 947.354L495.912 940.332L497.316 934.714L494.508 930.502L498.721 927.693L491.699 921.374L495.21 916.458L488.89 909.436L481.167 905.224L485.38 901.011L479.06 890.478L483.975 876.435L487.486 870.817L483.273 862.391L486.784 856.774L490.295 854.668ZM711.478 860.285L706.563 856.072L708.67 849.752L713.585 851.859L715.691 857.476L711.478 860.285ZM676.37 860.285L672.859 860.987L664.433 853.263L667.944 847.646L676.37 856.774V860.285ZM491.699 850.454L483.975 846.241L486.784 841.326L492.401 844.135L491.699 850.454ZM698.839 842.73L691.115 835.007L694.626 831.496L700.244 839.921L698.839 842.73ZM707.265 838.517L700.946 842.028L700.244 836.411L703.755 831.496L707.968 834.305L707.265 838.517ZM667.242 812.537L670.05 819.559H663.029L659.518 814.643L665.135 809.729L667.242 812.537ZM668.646 792.174L666.54 802.005L651.794 814.643V803.409L655.305 790.77L663.731 793.578L668.646 792.174ZM691.818 777.429L685.498 780.237L679.179 772.513L687.605 766.896H691.818L693.924 771.811L691.818 777.429ZM710.776 768.3L711.478 772.513L705.861 778.833L703.052 773.918L710.776 768.3ZM696.733 771.811L691.818 763.386L694.626 760.577L707.968 743.724L713.585 735.299L716.394 743.724L714.287 750.044L707.265 761.279L696.733 771.811ZM1991.53 1515.41H1302.71L1292.88 1509.79L1292.17 1504.18H1287.26L1279.53 1510.49L1276.02 1515.41L1271.81 1506.98L1276.73 1501.37L1266.19 1498.56L1266.9 1491.54L1269 1487.32L1263.38 1481L1280.24 1478.9L1266.19 1472.58L1261.98 1473.98L1260.58 1467.66L1263.38 1464.85V1441.68L1257.06 1443.79L1244.43 1451.51L1245.83 1461.34L1238.81 1466.96L1221.25 1457.83L1214.23 1457.13L1206.51 1450.81L1198.78 1437.47V1431.85L1202.3 1425.53L1208.61 1424.13L1217.04 1437.47L1219.85 1452.21L1223.36 1448.7L1222.66 1440.28L1217.74 1431.15L1209.32 1419.21L1212.83 1410.79L1212.13 1401.66L1207.21 1396.04L1208.61 1391.13L1219.15 1386.91L1223.36 1380.59L1219.15 1379.89L1214.23 1385.51L1205.1 1389.72L1204.4 1400.25L1210.72 1408.68L1205.81 1415.7L1200.19 1412.19L1197.38 1415.7L1190.36 1419.21L1172.1 1420.62L1162.97 1417.11L1161.57 1411.49L1152.44 1402.36L1145.42 1398.15L1138.4 1387.61L1144.72 1389.02L1149.63 1385.51L1151.04 1376.38L1153.85 1371.46L1155.95 1363.74L1153.14 1356.02L1147.53 1352.51L1151.74 1343.38L1137.7 1353.21L1127.16 1350.4L1125.06 1347.59L1119.44 1351.8L1118.74 1339.87L1120.14 1332.85L1127.16 1330.04L1127.87 1325.82L1134.89 1320.21L1135.59 1306.16L1138.4 1301.25L1132.08 1292.82L1138.4 1283.69L1141.21 1282.29L1139.1 1276.67L1130.67 1287.2L1126.46 1290.01L1128.57 1297.74L1132.08 1300.55L1129.97 1317.4L1122.25 1323.02L1116.63 1330.74L1114.52 1338.46L1108.2 1339.17L1105.4 1334.25H1100.48L1093.46 1330.74L1089.95 1334.25L1083.63 1335.65L1080.82 1330.74L1082.93 1323.72L1080.12 1318.8L1073.1 1336.36L1068.88 1337.76L1063.27 1331.44L1066.07 1327.93L1058.35 1326.53L1056.24 1330.04L1048.52 1333.55L1040.8 1332.85L1026.05 1330.04L1030.97 1320.91L1026.05 1318.1L1027.46 1312.48L1035.88 1311.78L1043.6 1309.67L1049.92 1311.08L1059.05 1308.27L1068.88 1306.86L1070.99 1300.55L1076.61 1294.93L1073.1 1287.91L1074.5 1285.1L1080.12 1284.4L1083.63 1276.67V1272.46L1078.71 1258.42L1074.5 1259.82L1078.01 1271.76L1081.52 1275.27L1078.71 1279.48L1070.29 1283.69V1290.01L1073.1 1292.82L1065.37 1303.35L1054.84 1304.06L1049.22 1306.86L1046.41 1303.35L1040.8 1306.86L1030.26 1308.97L1027.46 1306.16L1035.18 1299.14L1029.56 1292.82L1030.97 1285.8L1026.05 1285.1L1014.11 1286.5L1006.39 1290.72L1001.47 1287.91L1000.77 1282.99L1005.69 1277.37L1016.92 1279.48H1027.46L1030.26 1277.37L1013.41 1275.27L1007.09 1271.76L1004.99 1266.14L1001.47 1266.84L1003.58 1273.16L999.368 1279.48L991.644 1282.99L986.027 1281.59L976.899 1274.57L974.09 1279.48H963.558L969.175 1285.1L964.26 1290.01L955.834 1284.4L948.812 1282.99L943.195 1278.78L931.96 1274.57L932.662 1270.35L923.534 1266.84L926.343 1252.8L915.81 1255.61L904.575 1246.48L903.171 1238.05L907.384 1235.24L916.512 1232.43L920.725 1229.63L932.662 1231.03L936.173 1233.14L948.11 1231.03L955.132 1226.82L953.025 1224.01L943.897 1229.63L924.938 1227.52L912.299 1224.71L903.873 1225.41V1221.2L913.001 1216.99L916.512 1211.37L922.129 1207.86L924.236 1202.24L924.938 1193.11L929.151 1187.5L941.088 1183.98L962.153 1182.58L988.836 1186.09L993.049 1184.69L997.262 1176.96L994.453 1176.26L989.538 1183.28L958.642 1178.37L945.301 1180.47L939.684 1176.96L935.471 1181.88L930.556 1180.47L932.662 1171.35L929.853 1169.24L927.045 1179.07L920.023 1176.96L916.512 1179.77L927.747 1184.69L922.832 1186.79L919.321 1195.22L920.725 1200.84L916.512 1207.16L908.086 1209.26L906.682 1203.65L903.171 1200.84L902.469 1191.01L896.851 1181.88L897.554 1174.16L895.447 1163.62L898.256 1150.28L905.277 1146.07L911.597 1146.77L913.703 1141.15L915.108 1129.22L920.023 1123.6L928.449 1120.79L929.151 1129.22L934.066 1126.41L929.853 1117.98L937.577 1110.26L943.195 1109.56L950.918 1100.43L954.429 1099.02L962.855 1100.43L969.175 1105.34L969.877 1112.36L973.388 1117.28L983.218 1127.81L985.325 1123.6L974.792 1115.17L973.388 1105.34L970.579 1100.43L972.686 1092L965.664 1096.21L953.025 1094.11L951.621 1087.09L948.11 1080.77V1072.34L953.727 1065.32L961.451 1059L967.068 1056.19L971.984 1044.96L968.473 1032.32L965.664 1038.64L967.068 1047.76L961.451 1055.49L953.727 1061.11L945.301 1068.13L943.195 1080.77L929.853 1087.09L926.343 1093.41L912.299 1101.13L902.469 1106.75L897.554 1112.36L895.447 1104.64L891.936 1099.02L885.617 1095.51L882.106 1089.19L881.404 1082.17L884.915 1073.74L894.745 1069.53L891.936 1067.42L884.212 1068.83L879.297 1073.74L868.062 1097.62L861.743 1104.64L856.828 1100.43L860.339 1097.62V1089.89L865.956 1087.79L868.765 1080.77L867.36 1067.42L876.488 1042.15L875.786 1030.21L864.552 1035.83L852.615 1033.02L848.402 1027.4L846.295 1014.76L843.486 991.591L834.358 983.164L830.847 983.866L817.506 969.121L816.102 959.993L816.804 950.163L811.187 945.247L809.08 936.119L818.208 938.928L822.421 934.012L825.23 936.119L827.336 943.843L832.252 944.545L846.997 958.588L849.806 952.269L856.828 950.865L858.934 945.95L866.658 950.163L875.084 949.461L875.786 945.95H863.147L856.828 943.141L853.317 950.163L845.593 952.269L839.273 947.354L837.869 943.141L832.252 941.034L823.124 929.098L822.421 922.778L825.23 913.649L823.826 905.926L826.634 901.713L831.55 900.309L834.358 894.691L832.252 890.478L836.465 880.648L832.252 876.435L827.336 886.967L820.315 894.691L818.208 899.606L809.782 900.309V906.628L798.548 913.649L795.739 919.969L789.419 925.587L788.015 931.204V950.865L784.504 958.588L780.993 957.184L760.63 934.012L758.524 933.31L749.396 920.671L750.8 917.16L745.885 913.649L743.778 909.436L739.565 908.734L733.246 899.606L728.331 896.798L719.904 883.457L721.309 880.648L720.607 865.2L724.82 855.37L731.841 854.668L736.757 847.646V844.837L722.713 851.859L719.202 854.668L714.287 849.752L705.861 848.348V843.432L710.074 841.326L708.67 832.198L706.563 827.985L698.839 831.496L691.818 829.389L689.711 819.559L692.52 814.643L698.137 813.941L693.222 808.324L693.924 799.196L700.946 794.983L705.861 805.516L724.117 830.794L721.309 820.963L711.478 809.729L699.541 790.77L698.839 785.855L705.159 780.237L712.181 777.429L715.691 764.79L720.607 761.279L717.096 755.661L722.713 745.831L726.224 743.724L737.459 745.831L741.672 740.214L747.289 743.022L753.609 740.916L731.841 738.81L728.331 736.703L731.841 725.468L739.565 713.531L743.076 703.701L747.991 700.19L750.098 691.062L753.609 687.551L750.8 681.231V674.911L745.885 672.805L744.48 679.125L740.97 688.253L741.672 700.892L737.459 705.105L735.352 716.34L728.331 726.17L722.713 739.512L718.5 738.81L714.989 728.277L722.011 712.829L731.139 701.594L728.331 692.466L726.224 674.911L722.011 667.188L719.904 658.06L722.011 644.017L717.798 636.995L719.202 630.675L725.522 620.845L729.033 613.121L727.628 609.61L726.224 599.78L722.713 587.843L718.5 585.034L711.478 587.14L696.031 582.225L691.818 569.586L689.009 566.778L677.072 562.564L667.944 550.628L661.624 546.415L647.581 544.308L640.559 541.499L602.642 514.817L594.216 516.221L585.088 515.519L582.981 513.412L582.279 502.178L578.066 492.347L579.47 486.028L561.214 476.9L566.831 451.622L542.255 444.6L551.384 427.046L540.851 405.279L525.403 382.809L496.614 325.933L483.975 306.974L476.954 286.612L460.804 264.844L455.888 252.205L459.399 247.29L453.782 238.864L440.441 226.225L434.823 217.799L427.099 203.755L421.482 196.734L393.395 180.584L385.671 171.456L383.565 161.625L379.352 160.221V148.284L373.032 139.156L366.713 137.752L358.287 128.623L354.776 119.495L337.222 114.58L330.2 104.749L332.306 97.7277L323.88 91.408L329.498 82.2799L330.2 72.4497L324.583 62.6192L318.965 59.8103L311.241 47.8738L299.304 39.4477L293.687 33.1279L258.579 52.7886L231.896 59.8103L224.874 64.7256L231.896 70.3429L233.3 74.5562L230.492 80.8754L223.47 87.1952L215.044 85.0887V111.771L213.64 117.388L207.32 130.027L203.809 132.836L189.766 132.134L185.553 133.538L150.444 158.817L139.21 170.754L134.294 172.158L132.89 165.838L134.997 158.114L127.273 124.41L124.464 119.495L46.5231 39.4477L41.6079 31.0215L38.7992 18.3825L35.2884 14.1693L14.2233 3.63671L10.0103 0.125854H1218.45H1521.08V894.691L1522.49 904.522L1528.8 908.032L1527.4 914.352L1535.83 916.458L1541.44 924.885L1540.74 929.8L1528.1 927.693L1529.51 934.714L1528.1 940.332L1534.42 942.439L1540.04 955.078L1549.17 962.801L1551.98 959.993L1562.51 962.801H1570.23L1572.34 972.632L1577.96 982.462L1587.79 985.973L1597.62 992.293L1599.72 980.356L1603.23 978.952L1612.36 985.271L1620.09 995.804L1622.19 1001.42L1627.11 1007.74L1625.7 1014.06L1631.32 1026L1638.34 1023.19L1646.07 1033.02V1038.64L1650.98 1042.85L1655.2 1051.98L1651.68 1058.3L1653.09 1063.91L1657.3 1067.42V1072.34L1660.11 1076.55L1658.71 1084.28L1662.92 1092.7L1667.13 1089.19L1674.15 1088.49L1675.56 1082.87L1679.77 1077.26L1688.2 1084.98L1698.73 1087.79L1700.84 1092L1700.13 1097.62L1693.81 1103.94L1698.73 1114.47L1705.75 1116.58L1712.07 1123.6L1719.79 1120.79L1728.92 1122.9L1734.54 1118.68L1737.35 1134.13L1744.37 1141.85L1749.99 1144.66L1754.9 1150.98L1756.31 1158L1764.03 1176.26L1770.35 1177.67L1778.08 1166.43L1783.69 1164.32L1790.71 1177.67L1792.12 1186.09L1799.84 1190.3L1801.25 1195.22L1806.16 1198.73L1807.57 1205.05L1814.59 1210.67V1219.8L1819.5 1228.92H1823.72L1826.52 1234.54L1834.25 1237.35L1835.65 1240.16L1836.36 1249.29L1845.48 1256.31L1852.51 1257.01L1856.72 1262.63L1867.95 1271.05L1872.17 1280.18L1867.25 1282.29L1865.85 1286.5L1872.17 1288.61L1875.68 1293.52L1890.42 1301.25L1894.64 1309.67L1892.53 1313.18L1902.36 1324.42L1904.47 1320.21L1909.38 1318.8L1917.1 1322.31L1929.04 1341.97L1935.36 1348.29L1938.17 1367.25L1939.57 1377.78L1943.79 1383.4L1945.89 1394.64L1942.38 1397.44V1405.87L1947.3 1419.21L1942.38 1437.47L1938.17 1443.79L1947.3 1448.7H1952.21L1949.4 1457.13V1463.45L1952.21 1469.07L1959.24 1473.98L1962.75 1482.41L1966.26 1483.11L1966.96 1489.43L1978.9 1492.24L1984.51 1496.45L1985.22 1502.77L1992.94 1508.39L1991.53 1515.41Z" fill="#006D32" fill-opacity="0.2"/>
<path d="M1139.1 1362.34V1358.83L1131.38 1354.61L1127.16 1359.53L1130.67 1367.25L1132.78 1368.66L1136.99 1377.08L1144.02 1371.46L1139.1 1365.85V1362.34ZM1139.1 1362.34L1144.72 1367.25L1151.04 1368.66V1359.53L1146.12 1354.61L1141.21 1358.12L1139.1 1362.34ZM1276.02 1542.79H1270.41L1266.9 1540.69V1535.07L1276.02 1542.79ZM1243.02 1527.35L1248.64 1533.67L1245.83 1535.07L1253.55 1541.39L1249.34 1547.01L1243.72 1548.41L1239.51 1542.09L1238.11 1534.37L1243.02 1527.35ZM1257.77 1530.16L1253.55 1530.86L1245.83 1521.73L1256.36 1525.94L1257.77 1530.16ZM1227.57 1497.86L1223.36 1498.56L1216.34 1496.45L1217.04 1490.13L1227.57 1497.86ZM1048.52 1495.75L1044.31 1495.05L1042.2 1490.13L1049.92 1491.54L1048.52 1495.75ZM1061.16 1497.15L1054.84 1496.45L1051.33 1490.83L1056.24 1485.92L1061.86 1489.43L1061.16 1497.15ZM1040.09 1481L1037.99 1483.81L1027.46 1481L1026.75 1468.36L1034.48 1466.26L1038.69 1470.47L1040.09 1481ZM1253.55 1473.28L1250.04 1468.36L1254.96 1463.45L1257.06 1469.07L1253.55 1473.28ZM1177.72 1452.21L1185.44 1453.62L1190.36 1457.83L1178.42 1458.53L1177.72 1452.21ZM1257.77 1455.73L1255.66 1460.64L1246.53 1456.43L1250.04 1450.11L1254.96 1449.41L1257.77 1455.73ZM1155.95 1450.11L1150.33 1454.32L1149.63 1448L1155.95 1450.11ZM1148.93 1455.73L1144.72 1455.02L1138.4 1448.7L1141.21 1443.79L1148.93 1455.73ZM1202.3 1419.91L1198.08 1424.13L1195.27 1431.85L1191.06 1433.96L1187.55 1428.34L1192.47 1423.43L1202.3 1419.91ZM1177.72 1431.15L1182.63 1439.58L1190.36 1447.3L1188.25 1450.81L1173.51 1440.98L1169.29 1440.28L1166.48 1432.55L1155.25 1426.94L1151.04 1423.43L1151.74 1416.4L1155.25 1417.81L1159.46 1422.72L1172.8 1426.94L1177.72 1431.15ZM986.027 1410.08H990.24L994.453 1422.02L996.56 1437.47L991.644 1442.38L981.112 1438.17L972.686 1430.45L971.281 1424.13L974.09 1419.21L968.473 1412.89L984.623 1406.57L986.027 1410.08ZM1126.46 1389.72L1120.14 1376.38L1125.76 1370.06L1129.97 1371.46L1132.78 1384.1L1127.16 1386.21L1126.46 1389.72ZM1111.72 1391.83L1109.61 1391.13L1106.1 1381.3L1099.08 1374.27L1096.97 1362.34L1101.18 1356.02L1110.31 1363.74L1111.72 1368.66L1106.8 1375.68L1110.31 1383.4L1111.72 1391.83ZM1108.91 1344.08L1120.84 1365.15L1113.82 1370.76V1363.74L1111.01 1361.63L1107.5 1353.21L1103.29 1351.8L1094.16 1355.31L1093.46 1348.99H1099.78L1101.89 1337.76L1108.91 1344.08ZM1084.33 1341.27L1073.8 1344.78L1070.29 1341.27L1077.31 1337.76H1082.93L1084.33 1341.27ZM1091.35 1347.59L1085.74 1348.29L1081.52 1345.48L1086.44 1339.17L1095.57 1334.95L1098.37 1338.46L1091.35 1347.59ZM1062.56 1341.27L1049.22 1339.87L1054.14 1334.95L1060.46 1333.55L1065.37 1338.46L1062.56 1341.27ZM1026.75 1323.02L1021.14 1325.82L1009.9 1327.93L998.666 1324.42L1016.22 1320.21L1022.54 1317.4L1026.75 1323.02ZM1015.52 1317.4L1006.39 1320.21L1001.47 1315.99L1014.82 1313.89L1015.52 1317.4ZM962.855 1309.67H974.09V1315.29L962.855 1312.48L956.536 1313.89L957.238 1308.97L962.855 1309.67ZM1030.26 1299.84L1026.75 1301.95L1022.54 1311.08L1010.6 1308.97L1009.2 1311.78L997.262 1311.08L998.666 1305.46L1013.41 1291.42L1023.94 1289.31L1030.26 1299.84ZM996.56 1287.91L997.262 1291.42L986.729 1295.63L977.601 1294.23L973.388 1290.01L979.708 1287.91H996.56ZM896.149 1284.4L920.725 1293.52L925.64 1296.33L928.449 1305.46L934.066 1304.06L945.301 1311.08L950.216 1315.29L957.238 1315.99L957.94 1318.1L967.771 1320.21L984.623 1324.42L995.155 1329.33L1008.5 1333.55L1016.22 1332.14L1023.94 1334.25H1029.56L1035.88 1335.65L1048.52 1343.38L1058.35 1344.08L1066.07 1348.29L1078.01 1346.19L1086.44 1350.4L1089.95 1353.21L1096.97 1377.08L1100.48 1379.19L1106.8 1390.42L1110.31 1401.66L1134.18 1426.23L1131.38 1438.87L1140.5 1457.13L1146.12 1457.83L1153.14 1464.85L1160.87 1468.36L1174.91 1471.17L1187.55 1476.79H1191.06L1198.08 1484.51L1207.21 1486.62L1209.32 1497.15L1218.45 1499.96L1223.36 1509.09L1221.25 1516.11L1236 1534.37L1238.11 1540.69L1238.81 1549.11L1240.91 1552.62L1240.21 1558.24H1245.13L1251.45 1552.62L1252.15 1560.35L1256.36 1573.69L1259.17 1576.5L1260.58 1583.52L1254.96 1586.33L1248.64 1581.41L1238.81 1595.46L1231.08 1596.86L1221.25 1591.24L1212.13 1590.54L1193.17 1582.82L1172.8 1572.29V1567.37L1168.59 1566.67L1165.08 1569.48L1151.04 1565.97L1139.1 1556.84L1117.33 1547.01L1109.61 1538.58L1117.33 1530.16L1123.65 1526.64L1125.76 1519.62L1130.67 1517.52L1139.1 1507.69L1134.89 1505.58L1133.48 1512.6L1127.16 1516.11L1117.33 1516.81L1113.12 1514.71L1106.8 1519.62L1095.57 1516.11L1087.84 1523.84L1085.74 1524.54L1075.2 1518.22L1066.07 1507.69L1058.35 1506.28L1059.75 1499.26L1065.37 1501.37L1073.1 1494.34L1068.88 1492.24L1058.35 1481H1052.73L1048.52 1485.92L1042.9 1481L1044.31 1475.39L1039.39 1467.66L1040.8 1460.64L1024.65 1465.56L1022.54 1470.47L1013.41 1463.45L1012.01 1457.83L1006.39 1461.34L1008.5 1466.26L1004.99 1468.36L1000.07 1464.15L1000.77 1450.11V1443.09L1009.2 1436.77L1018.33 1437.47L1034.48 1435.36L1029.56 1431.15L1018.33 1435.36L1009.2 1432.55L1007.09 1427.64L1000.07 1428.34L997.262 1425.53L994.453 1415L993.751 1405.17L989.538 1407.28L984.623 1403.06L978.303 1405.87L971.281 1406.57L970.579 1409.38L954.429 1408.68L948.11 1398.85L947.408 1395.34L953.025 1383.4L944.599 1374.27L943.195 1384.81L936.875 1388.32L934.066 1386.91L929.151 1381.3L927.045 1376.38L917.214 1377.78L914.406 1370.06L903.873 1382L894.745 1378.49V1374.98L904.575 1363.74L898.256 1357.42L901.767 1356.02L896.149 1349.7L893.341 1352.51L889.127 1349.7L893.341 1334.25L897.554 1335.65L906.682 1332.14H919.321L926.343 1321.61L917.214 1317.4L901.064 1316.7L902.469 1318.8H911.597L918.619 1323.02L899.66 1331.44L887.021 1333.55L882.106 1336.36L869.467 1326.53L866.658 1318.1L861.041 1316.7L859.636 1309.67L856.828 1306.86L854.721 1294.93L862.445 1292.82L871.573 1287.2L874.382 1287.91L880.701 1283.69L884.915 1285.1L896.149 1284.4ZM985.325 1285.8L973.388 1287.91L981.112 1281.59L985.325 1285.8ZM913.703 1287.91L901.064 1284.4L899.66 1281.59L909.49 1278.78L913.001 1282.29L913.703 1287.91ZM899.66 1278.78L892.638 1280.88L893.341 1275.27L899.66 1278.78ZM896.149 1207.16V1211.37L891.234 1214.18L886.319 1208.56L879.999 1205.75L874.382 1188.2L878.595 1181.18L885.617 1175.56L888.425 1184.69L892.638 1191.71L893.341 1201.54L896.149 1207.16ZM853.317 1149.58L847.699 1146.07L854.019 1142.56L853.317 1149.58ZM889.127 1132.03L890.532 1141.85L887.723 1151.69L883.51 1160.11L885.617 1166.43L884.212 1170.64L875.786 1172.75L877.191 1165.73L875.786 1158.71L866.658 1157.3L870.871 1150.98L868.765 1146.07L873.68 1135.54L877.893 1133.43L889.127 1132.03ZM647.581 1126.41L652.496 1127.81L644.07 1134.13L648.283 1142.56L639.857 1139.75L638.453 1127.81L639.857 1121.49L647.581 1126.41ZM896.149 1117.98L891.234 1128.51L878.595 1127.81L880.701 1121.49L883.51 1118.68L896.149 1117.98ZM869.467 1137.64L863.147 1126.41L868.062 1115.87H874.382V1127.81L869.467 1137.64ZM864.552 1109.56L865.254 1114.47L862.445 1122.9L855.423 1120.09L853.317 1123.6L844.891 1120.09L851.21 1109.56H864.552ZM889.83 1101.83L894.043 1114.47L891.936 1117.28L880.701 1116.58L877.191 1108.85L872.978 1107.45L882.106 1101.13L889.83 1101.83ZM936.875 1106.75L933.364 1107.45L927.747 1113.07L920.725 1115.87L915.108 1122.19L910.193 1134.83L910.895 1139.75L905.277 1143.26L895.447 1146.07L894.745 1139.75L896.149 1129.22L901.064 1115.17L906.682 1108.15L913.001 1107.45L925.64 1099.72L933.364 1089.19L946.705 1084.98L947.408 1092.7L949.514 1094.81L943.897 1102.53L936.875 1106.75ZM832.954 1077.96L837.167 1080.06L837.869 1091.3L835.06 1102.53L828.741 1098.32L825.932 1084.98L826.634 1079.36L832.954 1077.96ZM844.891 1062.51L849.104 1076.55L848.402 1082.87L844.189 1083.58L832.954 1075.15L828.039 1073.04L829.443 1062.51H844.891ZM597.025 1046.36L604.748 1049.17L611.77 1044.96L613.877 1049.17L611.77 1057.59L608.259 1058.3L603.344 1054.08L599.833 1061.81L597.727 1054.08L593.514 1049.17L597.025 1046.36ZM856.828 1091.3L851.912 1092L849.806 1087.79L854.721 1079.36L851.912 1071.64L850.508 1058.3L853.317 1047.06L851.21 1043.55L856.828 1036.53L858.934 1047.06L861.041 1050.57L861.743 1063.91L864.552 1076.55L861.743 1084.28L856.828 1091.3ZM802.761 1048.47L811.889 1058.3L813.293 1061.81V1071.64L808.378 1077.96L806.271 1071.64L802.761 1072.34L792.93 1059L784.504 1040.74L787.313 1032.32L799.25 1043.55L802.761 1048.47ZM866.658 1059.7L863.147 1053.38L863.849 1049.17L861.041 1039.34L869.467 1036.53L870.871 1042.15L866.658 1059.7ZM850.508 1037.23L848.402 1038.64L849.104 1048.47L843.486 1046.36L846.295 1028.1L849.806 1030.91L850.508 1037.23ZM552.086 1013.36L543.66 1014.06L540.851 1009.15L551.384 1010.55L552.086 1013.36ZM760.63 1000.02L752.204 998.613L748.693 992.293L754.311 991.591L760.63 1000.02ZM774.674 991.591L778.887 999.315L782.398 1002.83L784.504 1009.85L780.291 1013.36L776.078 1009.85L769.759 999.315L769.056 995.102L763.439 990.888L766.95 984.569L770.461 985.271L774.674 991.591ZM585.79 976.143L587.896 983.866L586.492 988.08L592.812 990.888L598.429 996.506L600.535 1002.12L591.407 1002.83L582.981 1000.02L582.279 1003.53L589.301 1007.04L599.131 1009.85L601.94 1012.66L599.833 1020.38L593.514 1026H583.683L580.875 1027.4L582.981 1035.83L587.896 1038.64L582.981 1045.66L590.705 1049.17L594.216 1055.49L592.812 1059L596.322 1064.62V1069.53L601.94 1073.04L611.77 1074.45L610.366 1077.26L615.983 1081.47L613.877 1087.79L620.898 1092.7L622.303 1084.28L629.324 1085.68L624.409 1091.3L622.303 1101.83L627.92 1102.53L637.751 1099.02L641.964 1104.64L642.666 1111.66L648.283 1110.96L645.474 1117.98L639.155 1116.58L634.942 1124.3L625.814 1120.79L624.409 1115.87L618.792 1113.77L607.557 1097.62H604.748L601.238 1085.68L594.918 1076.55L588.599 1073.74L578.768 1065.32L574.555 1055.49L568.938 1051.98L559.107 1042.15L550.681 1031.61L552.086 1027.4L546.468 1025.29L542.255 1017.57L550.681 1016.17L554.894 1019.68L557.703 1016.17L554.894 1009.85L551.384 1006.34H542.255L535.936 1004.23H529.616L526.808 989.484L533.127 992.293H540.149L545.064 988.782L549.979 989.484L564.023 988.782L571.044 981.76L577.364 978.25L585.79 976.143ZM837.167 989.484L844.189 1007.04L845.593 1018.27L844.189 1030.21L838.571 1061.11L826.634 1061.81L828.039 1054.79L827.336 1043.55L830.145 1031.61L835.06 1021.78L827.336 1021.08L828.741 1028.81L826.634 1031.61L825.23 1044.96L826.634 1051.28L818.91 1054.79L813.293 1052.68L802.761 1043.55L797.143 1027.4L799.25 1022.49L793.632 1018.27L792.228 1007.04L795.037 1000.02L799.952 997.91L800.654 983.164L802.058 981.76L801.356 969.823L805.569 968.419L814.697 971.228L823.826 981.058L830.847 986.675L837.167 989.484ZM796.441 995.804L788.015 996.506L780.993 992.293L781.695 980.356L787.313 972.632L785.206 966.312L792.93 968.419L795.037 981.058L794.334 985.271L796.441 995.804ZM813.995 963.504L810.484 967.015L806.271 964.908L797.845 967.717L795.739 961.397L802.058 950.163V945.247L805.569 938.928L813.995 955.78V963.504ZM709.372 934.012L722.011 944.545L730.437 949.461L737.459 957.184L738.863 961.397L748.693 978.952L747.991 987.377L741.672 985.271L739.565 988.782L732.544 987.377L727.628 976.845L722.011 974.037L721.309 968.419L715.691 964.908L710.776 958.588L703.052 957.886L693.924 941.034L686.2 935.417V929.098L689.009 924.885L692.52 925.587L709.372 934.012ZM816.804 931.204L809.08 931.906L799.952 942.439V950.163H793.632L795.037 938.928L794.334 926.289L802.761 918.565L807.676 916.458H815.4L819.613 914.352L816.804 926.991V931.204ZM719.904 929.8L714.287 931.204L707.968 930.502L701.648 926.991L696.031 918.565L705.159 909.436L710.776 906.628V914.352L717.096 916.458L719.904 929.8ZM692.52 903.82L688.307 908.032L679.881 903.82L682.689 898.202L692.52 903.82ZM747.289 920.671L753.609 931.204L773.269 952.269L775.376 957.184L780.993 962.099V974.739L778.887 977.548L775.376 965.61L771.163 970.526L766.95 968.419L769.056 980.356L762.035 981.058L755.013 969.121L744.48 959.993L741.672 955.078L742.374 948.758L736.054 946.652L738.161 938.928L733.246 929.8L725.522 932.608L720.607 922.076V915.756L712.181 912.947V903.117L705.159 898.202L706.563 891.882L712.181 887.669L725.522 896.798L733.246 905.926L741.672 912.245L747.289 920.671ZM707.265 874.328L709.372 879.946L708.67 884.861L704.457 889.776L700.244 898.202H696.733L691.818 889.776L695.328 882.755L691.818 881.35L690.413 888.371H684.796L679.881 882.052H674.263L672.157 886.967L677.072 891.882L676.37 898.202L671.455 895.393L670.753 886.967L674.966 877.839L679.881 872.924L696.733 863.795L700.946 866.604L707.265 874.328ZM490.295 854.668L507.849 859.583L518.382 857.476L523.999 860.285L526.105 870.817L533.127 868.008L537.34 863.093L545.766 860.987L550.681 866.604V871.519L557.703 877.137L557.001 885.563L560.512 892.584L558.405 897.5L554.192 898.904L550.681 906.628L540.149 908.734L535.234 912.947L528.212 916.458H519.084L524.701 922.076L530.318 924.182L538.745 920.671L539.447 923.48L546.468 926.991L545.766 919.969L553.49 922.778L557.001 916.458L554.192 906.628L560.512 897.5L563.32 891.18L560.512 886.967L559.107 872.222L566.129 873.626L575.96 870.817L592.812 860.285L595.62 865.902L593.514 877.839L589.301 887.669L583.683 896.095L579.47 905.926V914.352L574.555 927.693L575.96 934.714L573.853 940.332L575.96 949.461L576.662 962.099L572.449 972.632L568.938 976.143H561.916L551.384 979.654L549.979 983.866L559.107 983.164L554.192 988.782L544.362 987.377L538.042 990.186L532.425 989.484L523.297 982.462L523.999 978.952L514.169 972.632L520.488 969.823L524.701 964.908L509.253 967.717L512.764 960.695L527.51 961.397L532.425 966.312L535.936 963.504L530.318 959.993L528.212 955.078L518.382 952.269L509.253 948.056L502.934 947.354L495.912 940.332L497.316 934.714L494.508 930.502L498.721 927.693L491.699 921.374L495.21 916.458L488.89 909.436L481.167 905.224L485.38 901.011L479.06 890.478L483.975 876.435L487.486 870.817L483.273 862.391L486.784 856.774L490.295 854.668ZM711.478 860.285L706.563 856.072L708.67 849.752L713.585 851.859L715.691 857.476L711.478 860.285ZM676.37 860.285L672.859 860.987L664.433 853.263L667.944 847.646L676.37 856.774V860.285ZM491.699 850.454L483.975 846.241L486.784 841.326L492.401 844.135L491.699 850.454ZM698.839 842.73L691.115 835.007L694.626 831.496L700.244 839.921L698.839 842.73ZM707.265 838.517L700.946 842.028L700.244 836.411L703.755 831.496L707.968 834.305L707.265 838.517ZM667.242 812.537L670.05 819.559H663.029L659.518 814.643L665.135 809.729L667.242 812.537ZM668.646 792.174L666.54 802.005L651.794 814.643V803.409L655.305 790.77L663.731 793.578L668.646 792.174ZM691.818 777.429L685.498 780.237L679.179 772.513L687.605 766.896H691.818L693.924 771.811L691.818 777.429ZM710.776 768.3L711.478 772.513L705.861 778.833L703.052 773.918L710.776 768.3ZM696.733 771.811L691.818 763.386L694.626 760.577L707.968 743.724L713.585 735.299L716.394 743.724L714.287 750.044L707.265 761.279L696.733 771.811ZM1991.53 1515.41H1302.71L1292.88 1509.79L1292.17 1504.18H1287.26L1279.53 1510.49L1276.02 1515.41L1271.81 1506.98L1276.73 1501.37L1266.19 1498.56L1266.9 1491.54L1269 1487.32L1263.38 1481L1280.24 1478.9L1266.19 1472.58L1261.98 1473.98L1260.58 1467.66L1263.38 1464.85V1441.68L1257.06 1443.79L1244.43 1451.51L1245.83 1461.34L1238.81 1466.96L1221.25 1457.83L1214.23 1457.13L1206.51 1450.81L1198.78 1437.47V1431.85L1202.3 1425.53L1208.61 1424.13L1217.04 1437.47L1219.85 1452.21L1223.36 1448.7L1222.66 1440.28L1217.74 1431.15L1209.32 1419.21L1212.83 1410.79L1212.13 1401.66L1207.21 1396.04L1208.61 1391.13L1219.15 1386.91L1223.36 1380.59L1219.15 1379.89L1214.23 1385.51L1205.1 1389.72L1204.4 1400.25L1210.72 1408.68L1205.81 1415.7L1200.19 1412.19L1197.38 1415.7L1190.36 1419.21L1172.1 1420.62L1162.97 1417.11L1161.57 1411.49L1152.44 1402.36L1145.42 1398.15L1138.4 1387.61L1144.72 1389.02L1149.63 1385.51L1151.04 1376.38L1153.85 1371.46L1155.95 1363.74L1153.14 1356.02L1147.53 1352.51L1151.74 1343.38L1137.7 1353.21L1127.16 1350.4L1125.06 1347.59L1119.44 1351.8L1118.74 1339.87L1120.14 1332.85L1127.16 1330.04L1127.87 1325.82L1134.89 1320.21L1135.59 1306.16L1138.4 1301.25L1132.08 1292.82L1138.4 1283.69L1141.21 1282.29L1139.1 1276.67L1130.67 1287.2L1126.46 1290.01L1128.57 1297.74L1132.08 1300.55L1129.97 1317.4L1122.25 1323.02L1116.63 1330.74L1114.52 1338.46L1108.2 1339.17L1105.4 1334.25H1100.48L1093.46 1330.74L1089.95 1334.25L1083.63 1335.65L1080.82 1330.74L1082.93 1323.72L1080.12 1318.8L1073.1 1336.36L1068.88 1337.76L1063.27 1331.44L1066.07 1327.93L1058.35 1326.53L1056.24 1330.04L1048.52 1333.55L1040.8 1332.85L1026.05 1330.04L1030.97 1320.91L1026.05 1318.1L1027.46 1312.48L1035.88 1311.78L1043.6 1309.67L1049.92 1311.08L1059.05 1308.27L1068.88 1306.86L1070.99 1300.55L1076.61 1294.93L1073.1 1287.91L1074.5 1285.1L1080.12 1284.4L1083.63 1276.67V1272.46L1078.71 1258.42L1074.5 1259.82L1078.01 1271.76L1081.52 1275.27L1078.71 1279.48L1070.29 1283.69V1290.01L1073.1 1292.82L1065.37 1303.35L1054.84 1304.06L1049.22 1306.86L1046.41 1303.35L1040.8 1306.86L1030.26 1308.97L1027.46 1306.16L1035.18 1299.14L1029.56 1292.82L1030.97 1285.8L1026.05 1285.1L1014.11 1286.5L1006.39 1290.72L1001.47 1287.91L1000.77 1282.99L1005.69 1277.37L1016.92 1279.48H1027.46L1030.26 1277.37L1013.41 1275.27L1007.09 1271.76L1004.99 1266.14L1001.47 1266.84L1003.58 1273.16L999.368 1279.48L991.644 1282.99L986.027 1281.59L976.899 1274.57L974.09 1279.48H963.558L969.175 1285.1L964.26 1290.01L955.834 1284.4L948.812 1282.99L943.195 1278.78L931.96 1274.57L932.662 1270.35L923.534 1266.84L926.343 1252.8L915.81 1255.61L904.575 1246.48L903.171 1238.05L907.384 1235.24L916.512 1232.43L920.725 1229.63L932.662 1231.03L936.173 1233.14L948.11 1231.03L955.132 1226.82L953.025 1224.01L943.897 1229.63L924.938 1227.52L912.299 1224.71L903.873 1225.41V1221.2L913.001 1216.99L916.512 1211.37L922.129 1207.86L924.236 1202.24L924.938 1193.11L929.151 1187.5L941.088 1183.98L962.153 1182.58L988.836 1186.09L993.049 1184.69L997.262 1176.96L994.453 1176.26L989.538 1183.28L958.642 1178.37L945.301 1180.47L939.684 1176.96L935.471 1181.88L930.556 1180.47L932.662 1171.35L929.853 1169.24L927.045 1179.07L920.023 1176.96L916.512 1179.77L927.747 1184.69L922.832 1186.79L919.321 1195.22L920.725 1200.84L916.512 1207.16L908.086 1209.26L906.682 1203.65L903.171 1200.84L902.469 1191.01L896.851 1181.88L897.554 1174.16L895.447 1163.62L898.256 1150.28L905.277 1146.07L911.597 1146.77L913.703 1141.15L915.108 1129.22L920.023 1123.6L928.449 1120.79L929.151 1129.22L934.066 1126.41L929.853 1117.98L937.577 1110.26L943.195 1109.56L950.918 1100.43L954.429 1099.02L962.855 1100.43L969.175 1105.34L969.877 1112.36L973.388 1117.28L983.218 1127.81L985.325 1123.6L974.792 1115.17L973.388 1105.34L970.579 1100.43L972.686 1092L965.664 1096.21L953.025 1094.11L951.621 1087.09L948.11 1080.77V1072.34L953.727 1065.32L961.451 1059L967.068 1056.19L971.984 1044.96L968.473 1032.32L965.664 1038.64L967.068 1047.76L961.451 1055.49L953.727 1061.11L945.301 1068.13L943.195 1080.77L929.853 1087.09L926.343 1093.41L912.299 1101.13L902.469 1106.75L897.554 1112.36L895.447 1104.64L891.936 1099.02L885.617 1095.51L882.106 1089.19L881.404 1082.17L884.915 1073.74L894.745 1069.53L891.936 1067.42L884.212 1068.83L879.297 1073.74L868.062 1097.62L861.743 1104.64L856.828 1100.43L860.339 1097.62V1089.89L865.956 1087.79L868.765 1080.77L867.36 1067.42L876.488 1042.15L875.786 1030.21L864.552 1035.83L852.615 1033.02L848.402 1027.4L846.295 1014.76L843.486 991.591L834.358 983.164L830.847 983.866L817.506 969.121L816.102 959.993L816.804 950.163L811.187 945.247L809.08 936.119L818.208 938.928L822.421 934.012L825.23 936.119L827.336 943.843L832.252 944.545L846.997 958.588L849.806 952.269L856.828 950.865L858.934 945.95L866.658 950.163L875.084 949.461L875.786 945.95H863.147L856.828 943.141L853.317 950.163L845.593 952.269L839.273 947.354L837.869 943.141L832.252 941.034L823.124 929.098L822.421 922.778L825.23 913.649L823.826 905.926L826.634 901.713L831.55 900.309L834.358 894.691L832.252 890.478L836.465 880.648L832.252 876.435L827.336 886.967L820.315 894.691L818.208 899.606L809.782 900.309V906.628L798.548 913.649L795.739 919.969L789.419 925.587L788.015 931.204V950.865L784.504 958.588L780.993 957.184L760.63 934.012L758.524 933.31L749.396 920.671L750.8 917.16L745.885 913.649L743.778 909.436L739.565 908.734L733.246 899.606L728.331 896.798L719.904 883.457L721.309 880.648L720.607 865.2L724.82 855.37L731.841 854.668L736.757 847.646V844.837L722.713 851.859L719.202 854.668L714.287 849.752L705.861 848.348V843.432L710.074 841.326L708.67 832.198L706.563 827.985L698.839 831.496L691.818 829.389L689.711 819.559L692.52 814.643L698.137 813.941L693.222 808.324L693.924 799.196L700.946 794.983L705.861 805.516L724.117 830.794L721.309 820.963L711.478 809.729L699.541 790.77L698.839 785.855L705.159 780.237L712.181 777.429L715.691 764.79L720.607 761.279L717.096 755.661L722.713 745.831L726.224 743.724L737.459 745.831L741.672 740.214L747.289 743.022L753.609 740.916L731.841 738.81L728.331 736.703L731.841 725.468L739.565 713.531L743.076 703.701L747.991 700.19L750.098 691.062L753.609 687.551L750.8 681.231V674.911L745.885 672.805L744.48 679.125L740.97 688.253L741.672 700.892L737.459 705.105L735.352 716.34L728.331 726.17L722.713 739.512L718.5 738.81L714.989 728.277L722.011 712.829L731.139 701.594L728.331 692.466L726.224 674.911L722.011 667.188L719.904 658.06L722.011 644.017L717.798 636.995L719.202 630.675L725.522 620.845L729.033 613.121L727.628 609.61L726.224 599.78L722.713 587.843L718.5 585.034L711.478 587.14L696.031 582.225L691.818 569.586L689.009 566.778L677.072 562.564L667.944 550.628L661.624 546.415L647.581 544.308L640.559 541.499L602.642 514.817L594.216 516.221L585.088 515.519L582.981 513.412L582.279 502.178L578.066 492.347L579.47 486.028L561.214 476.9L566.831 451.622L542.255 444.6L551.384 427.046L540.851 405.279L525.403 382.809L496.614 325.933L483.975 306.974L476.954 286.612L460.804 264.844L455.888 252.205L459.399 247.29L453.782 238.864L440.441 226.225L434.823 217.799L427.099 203.755L421.482 196.734L393.395 180.584L385.671 171.456L383.565 161.625L379.352 160.221V148.284L373.032 139.156L366.713 137.752L358.287 128.623L354.776 119.495L337.222 114.58L330.2 104.749L332.306 97.7277L323.88 91.408L329.498 82.2799L330.2 72.4497L324.583 62.6192L318.965 59.8103L311.241 47.8738L299.304 39.4477L293.687 33.1279L258.579 52.7886L231.896 59.8103L224.874 64.7256L231.896 70.3429L233.3 74.5562L230.492 80.8754L223.47 87.1952L215.044 85.0887V111.771L213.64 117.388L207.32 130.027L203.809 132.836L189.766 132.134L185.553 133.538L150.444 158.817L139.21 170.754L134.294 172.158L132.89 165.838L134.997 158.114L127.273 124.41L124.464 119.495L46.5231 39.4477L41.6079 31.0215L38.7992 18.3825L35.2884 14.1693L14.2233 3.63671L10.0103 0.125854H1218.45H1521.08V894.691L1522.49 904.522L1528.8 908.032L1527.4 914.352L1535.83 916.458L1541.44 924.885L1540.74 929.8L1528.1 927.693L1529.51 934.714L1528.1 940.332L1534.42 942.439L1540.04 955.078L1549.17 962.801L1551.98 959.993L1562.51 962.801H1570.23L1572.34 972.632L1577.96 982.462L1587.79 985.973L1597.62 992.293L1599.72 980.356L1603.23 978.952L1612.36 985.271L1620.09 995.804L1622.19 1001.42L1627.11 1007.74L1625.7 1014.06L1631.32 1026L1638.34 1023.19L1646.07 1033.02V1038.64L1650.98 1042.85L1655.2 1051.98L1651.68 1058.3L1653.09 1063.91L1657.3 1067.42V1072.34L1660.11 1076.55L1658.71 1084.28L1662.92 1092.7L1667.13 1089.19L1674.15 1088.49L1675.56 1082.87L1679.77 1077.26L1688.2 1084.98L1698.73 1087.79L1700.84 1092L1700.13 1097.62L1693.81 1103.94L1698.73 1114.47L1705.75 1116.58L1712.07 1123.6L1719.79 1120.79L1728.92 1122.9L1734.54 1118.68L1737.35 1134.13L1744.37 1141.85L1749.99 1144.66L1754.9 1150.98L1756.31 1158L1764.03 1176.26L1770.35 1177.67L1778.08 1166.43L1783.69 1164.32L1790.71 1177.67L1792.12 1186.09L1799.84 1190.3L1801.25 1195.22L1806.16 1198.73L1807.57 1205.05L1814.59 1210.67V1219.8L1819.5 1228.92H1823.72L1826.52 1234.54L1834.25 1237.35L1835.65 1240.16L1836.36 1249.29L1845.48 1256.31L1852.51 1257.01L1856.72 1262.63L1867.95 1271.05L1872.17 1280.18L1867.25 1282.29L1865.85 1286.5L1872.17 1288.61L1875.68 1293.52L1890.42 1301.25L1894.64 1309.67L1892.53 1313.18L1902.36 1324.42L1904.47 1320.21L1909.38 1318.8L1917.1 1322.31L1929.04 1341.97L1935.36 1348.29L1938.17 1367.25L1939.57 1377.78L1943.79 1383.4L1945.89 1394.64L1942.38 1397.44V1405.87L1947.3 1419.21L1942.38 1437.47L1938.17 1443.79L1947.3 1448.7H1952.21L1949.4 1457.13V1463.45L1952.21 1469.07L1959.24 1473.98L1962.75 1482.41L1966.26 1483.11L1966.96 1489.43L1978.9 1492.24L1984.51 1496.45L1985.22 1502.77L1992.94 1508.39L1991.53 1515.41Z" stroke="#39D353" stroke-opacity="0.4" stroke-width="3.75023" stroke-linejoin="round"/>
<mask id="mask0_309_800" style="mask-type:alpha" maskUnits="userSpaceOnUse" x="8" y="-2" width="1987" height="1601">
<path d="M1276.02 1542.79H1270.41L1266.9 1540.69V1535.07L1276.02 1542.79ZM1243.02 1527.35L1248.64 1533.67L1245.83 1535.07L1253.55 1541.39L1249.34 1547.01L1243.72 1548.41L1239.51 1542.09L1238.11 1534.37L1243.02 1527.35ZM1257.77 1530.16L1253.55 1530.86L1245.83 1521.73L1256.36 1525.94L1257.77 1530.16ZM1227.57 1497.86L1223.36 1498.56L1216.34 1496.45L1217.04 1490.13L1227.57 1497.86ZM1048.52 1495.75L1044.31 1495.05L1042.2 1490.13L1049.92 1491.54L1048.52 1495.75ZM1061.16 1497.15L1054.84 1496.45L1051.33 1490.83L1056.24 1485.92L1061.86 1489.43L1061.16 1497.15ZM1040.09 1481L1037.99 1483.81L1027.46 1481L1026.75 1468.36L1034.48 1466.26L1038.69 1470.47L1040.09 1481ZM1253.55 1473.28L1250.04 1468.36L1254.96 1463.45L1257.06 1469.07L1253.55 1473.28ZM1177.72 1452.21L1185.44 1453.62L1190.36 1457.83L1178.42 1458.53L1177.72 1452.21ZM1257.77 1455.73L1255.66 1460.64L1246.53 1456.43L1250.04 1450.11L1254.96 1449.41L1257.77 1455.73ZM1155.95 1450.11L1150.33 1454.32L1149.63 1448L1155.95 1450.11ZM1148.93 1455.73L1144.72 1455.02L1138.4 1448.7L1141.21 1443.79L1148.93 1455.73ZM1202.3 1419.91L1198.08 1424.13L1195.27 1431.85L1191.06 1433.96L1187.55 1428.34L1192.47 1423.43L1202.3 1419.91ZM1177.72 1431.15L1182.63 1439.58L1190.36 1447.3L1188.25 1450.81L1173.51 1440.98L1169.29 1440.28L1166.48 1432.55L1155.25 1426.94L1151.04 1423.43L1151.74 1416.4L1155.25 1417.81L1159.46 1422.72L1172.8 1426.94L1177.72 1431.15ZM986.027 1410.08H990.24L994.453 1422.02L996.56 1437.47L991.644 1442.38L981.112 1438.17L972.686 1430.45L971.281 1424.13L974.09 1419.21L968.473 1412.89L984.623 1406.57L986.027 1410.08ZM1126.46 1389.72L1120.14 1376.38L1125.76 1370.06L1129.97 1371.46L1132.78 1384.1L1127.16 1386.21L1126.46 1389.72ZM1111.72 1391.83L1109.61 1391.13L1106.1 1381.3L1099.08 1374.27L1096.97 1362.34L1101.18 1356.02L1110.31 1363.74L1111.72 1368.66L1106.8 1375.68L1110.31 1383.4L1111.72 1391.83ZM1139.1 1365.85L1144.02 1371.46L1136.99 1377.08L1132.78 1368.66L1130.67 1367.25L1127.16 1359.53L1131.38 1354.61L1139.1 1358.83V1362.34V1365.85ZM1146.12 1354.61L1151.04 1359.53V1368.66L1144.72 1367.25L1139.1 1362.34L1141.21 1358.12L1146.12 1354.61ZM1108.91 1344.08L1120.84 1365.15L1113.82 1370.76V1363.74L1111.01 1361.63L1107.5 1353.21L1103.29 1351.8L1094.16 1355.31L1093.46 1348.99H1099.78L1101.89 1337.76L1108.91 1344.08ZM1084.33 1341.27L1073.8 1344.78L1070.29 1341.27L1077.31 1337.76H1082.93L1084.33 1341.27ZM1091.35 1347.59L1085.74 1348.29L1081.52 1345.48L1086.44 1339.17L1095.57 1334.95L1098.37 1338.46L1091.35 1347.59ZM1062.56 1341.27L1049.22 1339.87L1054.14 1334.95L1060.46 1333.55L1065.37 1338.46L1062.56 1341.27ZM1026.75 1323.02L1021.14 1325.82L1009.9 1327.93L998.666 1324.42L1016.22 1320.21L1022.54 1317.4L1026.75 1323.02ZM1015.52 1317.4L1006.39 1320.21L1001.47 1315.99L1014.82 1313.89L1015.52 1317.4ZM962.855 1309.67H974.09V1315.29L962.855 1312.48L956.536 1313.89L957.238 1308.97L962.855 1309.67ZM1030.26 1299.84L1026.75 1301.95L1022.54 1311.08L1010.6 1308.97L1009.2 1311.78L997.262 1311.08L998.666 1305.46L1013.41 1291.42L1023.94 1289.31L1030.26 1299.84ZM996.56 1287.91L997.262 1291.42L986.729 1295.63L977.601 1294.23L973.388 1290.01L979.708 1287.91H996.56ZM896.149 1284.4L920.725 1293.52L925.64 1296.33L928.449 1305.46L934.066 1304.06L945.301 1311.08L950.216 1315.29L957.238 1315.99L957.94 1318.1L967.771 1320.21L984.623 1324.42L995.155 1329.33L1008.5 1333.55L1016.22 1332.14L1023.94 1334.25H1029.56L1035.88 1335.65L1048.52 1343.38L1058.35 1344.08L1066.07 1348.29L1078.01 1346.19L1086.44 1350.4L1089.95 1353.21L1096.97 1377.08L1100.48 1379.19L1106.8 1390.42L1110.31 1401.66L1134.18 1426.23L1131.38 1438.87L1140.5 1457.13L1146.12 1457.83L1153.14 1464.85L1160.87 1468.36L1174.91 1471.17L1187.55 1476.79H1191.06L1198.08 1484.51L1207.21 1486.62L1209.32 1497.15L1218.45 1499.96L1223.36 1509.09L1221.25 1516.11L1236 1534.37L1238.11 1540.69L1238.81 1549.11L1240.91 1552.62L1240.21 1558.24H1245.13L1251.45 1552.62L1252.15 1560.35L1256.36 1573.69L1259.17 1576.5L1260.58 1583.52L1254.96 1586.33L1248.64 1581.41L1238.81 1595.46L1231.08 1596.86L1221.25 1591.24L1212.13 1590.54L1193.17 1582.82L1172.8 1572.29V1567.37L1168.59 1566.67L1165.08 1569.48L1151.04 1565.97L1139.1 1556.84L1117.33 1547.01L1109.61 1538.58L1117.33 1530.16L1123.65 1526.64L1125.76 1519.62L1130.67 1517.52L1139.1 1507.69L1134.89 1505.58L1133.48 1512.6L1127.16 1516.11L1117.33 1516.81L1113.12 1514.71L1106.8 1519.62L1095.57 1516.11L1087.84 1523.84L1085.74 1524.54L1075.2 1518.22L1066.07 1507.69L1058.35 1506.28L1059.75 1499.26L1065.37 1501.37L1073.1 1494.34L1068.88 1492.24L1058.35 1481H1052.73L1048.52 1485.92L1042.9 1481L1044.31 1475.39L1039.39 1467.66L1040.8 1460.64L1024.65 1465.56L1022.54 1470.47L1013.41 1463.45L1012.01 1457.83L1006.39 1461.34L1008.5 1466.26L1004.99 1468.36L1000.07 1464.15L1000.77 1450.11V1443.09L1009.2 1436.77L1018.33 1437.47L1034.48 1435.36L1029.56 1431.15L1018.33 1435.36L1009.2 1432.55L1007.09 1427.64L1000.07 1428.34L997.262 1425.53L994.453 1415L993.751 1405.17L989.538 1407.28L984.623 1403.06L978.303 1405.87L971.281 1406.57L970.579 1409.38L954.429 1408.68L948.11 1398.85L947.408 1395.34L953.025 1383.4L944.599 1374.27L943.195 1384.81L936.875 1388.32L934.066 1386.91L929.151 1381.3L927.045 1376.38L917.214 1377.78L914.406 1370.06L903.873 1382L894.745 1378.49V1374.98L904.575 1363.74L898.256 1357.42L901.767 1356.02L896.149 1349.7L893.341 1352.51L889.127 1349.7L893.341 1334.25L897.554 1335.65L906.682 1332.14H919.321L926.343 1321.61L917.214 1317.4L901.064 1316.7L902.469 1318.8H911.597L918.619 1323.02L899.66 1331.44L887.021 1333.55L882.106 1336.36L869.467 1326.53L866.658 1318.1L861.041 1316.7L859.636 1309.67L856.828 1306.86L854.721 1294.93L862.445 1292.82L871.573 1287.2L874.382 1287.91L880.701 1283.69L884.915 1285.1L896.149 1284.4ZM985.325 1285.8L973.388 1287.91L981.112 1281.59L985.325 1285.8ZM913.703 1287.91L901.064 1284.4L899.66 1281.59L909.49 1278.78L913.001 1282.29L913.703 1287.91ZM899.66 1278.78L892.638 1280.88L893.341 1275.27L899.66 1278.78ZM896.149 1207.16V1211.37L891.234 1214.18L886.319 1208.56L879.999 1205.75L874.382 1188.2L878.595 1181.18L885.617 1175.56L888.425 1184.69L892.638 1191.71L893.341 1201.54L896.149 1207.16ZM853.317 1149.58L847.699 1146.07L854.019 1142.56L853.317 1149.58ZM889.127 1132.03L890.532 1141.85L887.723 1151.69L883.51 1160.11L885.617 1166.43L884.212 1170.64L875.786 1172.75L877.191 1165.73L875.786 1158.71L866.658 1157.3L870.871 1150.98L868.765 1146.07L873.68 1135.54L877.893 1133.43L889.127 1132.03ZM647.581 1126.41L652.496 1127.81L644.07 1134.13L648.283 1142.56L639.857 1139.75L638.453 1127.81L639.857 1121.49L647.581 1126.41ZM896.149 1117.98L891.234 1128.51L878.595 1127.81L880.701 1121.49L883.51 1118.68L896.149 1117.98ZM869.467 1137.64L863.147 1126.41L868.062 1115.87H874.382V1127.81L869.467 1137.64ZM864.552 1109.56L865.254 1114.47L862.445 1122.9L855.423 1120.09L853.317 1123.6L844.891 1120.09L851.21 1109.56H864.552ZM889.83 1101.83L894.043 1114.47L891.936 1117.28L880.701 1116.58L877.191 1108.85L872.978 1107.45L882.106 1101.13L889.83 1101.83ZM936.875 1106.75L933.364 1107.45L927.747 1113.07L920.725 1115.87L915.108 1122.19L910.193 1134.83L910.895 1139.75L905.277 1143.26L895.447 1146.07L894.745 1139.75L896.149 1129.22L901.064 1115.17L906.682 1108.15L913.001 1107.45L925.64 1099.72L933.364 1089.19L946.705 1084.98L947.408 1092.7L949.514 1094.81L943.897 1102.53L936.875 1106.75ZM832.954 1077.96L837.167 1080.06L837.869 1091.3L835.06 1102.53L828.741 1098.32L825.932 1084.98L826.634 1079.36L832.954 1077.96ZM844.891 1062.51L849.104 1076.55L848.402 1082.87L844.189 1083.58L832.954 1075.15L828.039 1073.04L829.443 1062.51H844.891ZM597.025 1046.36L604.748 1049.17L611.77 1044.96L613.877 1049.17L611.77 1057.59L608.259 1058.3L603.344 1054.08L599.833 1061.81L597.727 1054.08L593.514 1049.17L597.025 1046.36ZM856.828 1091.3L851.912 1092L849.806 1087.79L854.721 1079.36L851.912 1071.64L850.508 1058.3L853.317 1047.06L851.21 1043.55L856.828 1036.53L858.934 1047.06L861.041 1050.57L861.743 1063.91L864.552 1076.55L861.743 1084.28L856.828 1091.3ZM802.761 1048.47L811.889 1058.3L813.293 1061.81V1071.64L808.378 1077.96L806.271 1071.64L802.761 1072.34L792.93 1059L784.504 1040.74L787.313 1032.32L799.25 1043.55L802.761 1048.47ZM866.658 1059.7L863.147 1053.38L863.849 1049.17L861.041 1039.34L869.467 1036.53L870.871 1042.15L866.658 1059.7ZM850.508 1037.23L848.402 1038.64L849.104 1048.47L843.486 1046.36L846.295 1028.1L849.806 1030.91L850.508 1037.23ZM552.086 1013.36L543.66 1014.06L540.851 1009.15L551.384 1010.55L552.086 1013.36ZM760.63 1000.02L752.204 998.613L748.693 992.293L754.311 991.591L760.63 1000.02ZM774.674 991.591L778.887 999.315L782.398 1002.83L784.504 1009.85L780.291 1013.36L776.078 1009.85L769.759 999.315L769.056 995.102L763.439 990.888L766.95 984.569L770.461 985.271L774.674 991.591ZM585.79 976.143L587.896 983.866L586.492 988.08L592.812 990.888L598.429 996.506L600.535 1002.12L591.407 1002.83L582.981 1000.02L582.279 1003.53L589.301 1007.04L599.131 1009.85L601.94 1012.66L599.833 1020.38L593.514 1026H583.683L580.875 1027.4L582.981 1035.83L587.896 1038.64L582.981 1045.66L590.705 1049.17L594.216 1055.49L592.812 1059L596.322 1064.62V1069.53L601.94 1073.04L611.77 1074.45L610.366 1077.26L615.983 1081.47L613.877 1087.79L620.898 1092.7L622.303 1084.28L629.324 1085.68L624.409 1091.3L622.303 1101.83L627.92 1102.53L637.751 1099.02L641.964 1104.64L642.666 1111.66L648.283 1110.96L645.474 1117.98L639.155 1116.58L634.942 1124.3L625.814 1120.79L624.409 1115.87L618.792 1113.77L607.557 1097.62H604.748L601.238 1085.68L594.918 1076.55L588.599 1073.74L578.768 1065.32L574.555 1055.49L568.938 1051.98L559.107 1042.15L550.681 1031.61L552.086 1027.4L546.468 1025.29L542.255 1017.57L550.681 1016.17L554.894 1019.68L557.703 1016.17L554.894 1009.85L551.384 1006.34H542.255L535.936 1004.23H529.616L526.808 989.484L533.127 992.293H540.149L545.064 988.782L549.979 989.484L564.023 988.782L571.044 981.76L577.364 978.25L585.79 976.143ZM837.167 989.484L844.189 1007.04L845.593 1018.27L844.189 1030.21L838.571 1061.11L826.634 1061.81L828.039 1054.79L827.336 1043.55L830.145 1031.61L835.06 1021.78L827.336 1021.08L828.741 1028.81L826.634 1031.61L825.23 1044.96L826.634 1051.28L818.91 1054.79L813.293 1052.68L802.761 1043.55L797.143 1027.4L799.25 1022.49L793.632 1018.27L792.228 1007.04L795.037 1000.02L799.952 997.91L800.654 983.164L802.058 981.76L801.356 969.823L805.569 968.419L814.697 971.228L823.826 981.058L830.847 986.675L837.167 989.484ZM796.441 995.804L788.015 996.506L780.993 992.293L781.695 980.356L787.313 972.632L785.206 966.312L792.93 968.419L795.037 981.058L794.334 985.271L796.441 995.804ZM813.995 963.504L810.484 967.015L806.271 964.908L797.845 967.717L795.739 961.397L802.058 950.163V945.247L805.569 938.928L813.995 955.78V963.504ZM709.372 934.012L722.011 944.545L730.437 949.461L737.459 957.184L738.863 961.397L748.693 978.952L747.991 987.377L741.672 985.271L739.565 988.782L732.544 987.377L727.628 976.845L722.011 974.037L721.309 968.419L715.691 964.908L710.776 958.588L703.052 957.886L693.924 941.034L686.2 935.417V929.098L689.009 924.885L692.52 925.587L709.372 934.012ZM816.804 931.204L809.08 931.906L799.952 942.439V950.163H793.632L795.037 938.928L794.334 926.289L802.761 918.565L807.676 916.458H815.4L819.613 914.352L816.804 926.991V931.204ZM719.904 929.8L714.287 931.204L707.968 930.502L701.648 926.991L696.031 918.565L705.159 909.436L710.776 906.628V914.352L717.096 916.458L719.904 929.8ZM692.52 903.82L688.307 908.032L679.881 903.82L682.689 898.202L692.52 903.82ZM747.289 920.671L753.609 931.204L773.269 952.269L775.376 957.184L780.993 962.099V974.739L778.887 977.548L775.376 965.61L771.163 970.526L766.95 968.419L769.056 980.356L762.035 981.058L755.013 969.121L744.48 959.993L741.672 955.078L742.374 948.758L736.054 946.652L738.161 938.928L733.246 929.8L725.522 932.608L720.607 922.076V915.756L712.181 912.947V903.117L705.159 898.202L706.563 891.882L712.181 887.669L725.522 896.798L733.246 905.926L741.672 912.245L747.289 920.671ZM707.265 874.328L709.372 879.946L708.67 884.861L704.457 889.776L700.244 898.202H696.733L691.818 889.776L695.328 882.755L691.818 881.35L690.413 888.371H684.796L679.881 882.052H674.263L672.157 886.967L677.072 891.882L676.37 898.202L671.455 895.393L670.753 886.967L674.966 877.839L679.881 872.924L696.733 863.795L700.946 866.604L707.265 874.328ZM490.295 854.668L507.849 859.583L518.382 857.476L523.999 860.285L526.105 870.817L533.127 868.008L537.34 863.093L545.766 860.987L550.681 866.604V871.519L557.703 877.137L557.001 885.563L560.512 892.584L558.405 897.5L554.192 898.904L550.681 906.628L540.149 908.734L535.234 912.947L528.212 916.458H519.084L524.701 922.076L530.318 924.182L538.745 920.671L539.447 923.48L546.468 926.991L545.766 919.969L553.49 922.778L557.001 916.458L554.192 906.628L560.512 897.5L563.32 891.18L560.512 886.967L559.107 872.222L566.129 873.626L575.96 870.817L592.812 860.285L595.62 865.902L593.514 877.839L589.301 887.669L583.683 896.095L579.47 905.926V914.352L574.555 927.693L575.96 934.714L573.853 940.332L575.96 949.461L576.662 962.099L572.449 972.632L568.938 976.143H561.916L551.384 979.654L549.979 983.866L559.107 983.164L554.192 988.782L544.362 987.377L538.042 990.186L532.425 989.484L523.297 982.462L523.999 978.952L514.169 972.632L520.488 969.823L524.701 964.908L509.253 967.717L512.764 960.695L527.51 961.397L532.425 966.312L535.936 963.504L530.318 959.993L528.212 955.078L518.382 952.269L509.253 948.056L502.934 947.354L495.912 940.332L497.316 934.714L494.508 930.502L498.721 927.693L491.699 921.374L495.21 916.458L488.89 909.436L481.167 905.224L485.38 901.011L479.06 890.478L483.975 876.435L487.486 870.817L483.273 862.391L486.784 856.774L490.295 854.668ZM711.478 860.285L706.563 856.072L708.67 849.752L713.585 851.859L715.691 857.476L711.478 860.285ZM676.37 860.285L672.859 860.987L664.433 853.263L667.944 847.646L676.37 856.774V860.285ZM491.699 850.454L483.975 846.241L486.784 841.326L492.401 844.135L491.699 850.454ZM698.839 842.73L691.115 835.007L694.626 831.496L700.244 839.921L698.839 842.73ZM707.265 838.517L700.946 842.028L700.244 836.411L703.755 831.496L707.968 834.305L707.265 838.517ZM667.242 812.537L670.05 819.559H663.029L659.518 814.643L665.135 809.729L667.242 812.537ZM668.646 792.174L666.54 802.005L651.794 814.643V803.409L655.305 790.77L663.731 793.578L668.646 792.174ZM691.818 777.429L685.498 780.237L679.179 772.513L687.605 766.896H691.818L693.924 771.811L691.818 777.429ZM710.776 768.3L711.478 772.513L705.861 778.833L703.052 773.918L710.776 768.3ZM696.733 771.811L691.818 763.386L694.626 760.577L707.968 743.724L713.585 735.299L716.394 743.724L714.287 750.044L707.265 761.279L696.733 771.811ZM1991.53 1515.41H1302.71L1292.88 1509.79L1292.17 1504.18H1287.26L1279.53 1510.49L1276.02 1515.41L1271.81 1506.98L1276.73 1501.37L1266.19 1498.56L1266.9 1491.54L1269 1487.32L1263.38 1481L1280.24 1478.9L1266.19 1472.58L1261.98 1473.98L1260.58 1467.66L1263.38 1464.85V1441.68L1257.06 1443.79L1244.43 1451.51L1245.83 1461.34L1238.81 1466.96L1221.25 1457.83L1214.23 1457.13L1206.51 1450.81L1198.78 1437.47V1431.85L1202.3 1425.53L1208.61 1424.13L1217.04 1437.47L1219.85 1452.21L1223.36 1448.7L1222.66 1440.28L1217.74 1431.15L1209.32 1419.21L1212.83 1410.79L1212.13 1401.66L1207.21 1396.04L1208.61 1391.13L1219.15 1386.91L1223.36 1380.59L1219.15 1379.89L1214.23 1385.51L1205.1 1389.72L1204.4 1400.25L1210.72 1408.68L1205.81 1415.7L1200.19 1412.19L1197.38 1415.7L1190.36 1419.21L1172.1 1420.62L1162.97 1417.11L1161.57 1411.49L1152.44 1402.36L1145.42 1398.15L1138.4 1387.61L1144.72 1389.02L1149.63 1385.51L1151.04 1376.38L1153.85 1371.46L1155.95 1363.74L1153.14 1356.02L1147.53 1352.51L1151.74 1343.38L1137.7 1353.21L1127.16 1350.4L1125.06 1347.59L1119.44 1351.8L1118.74 1339.87L1120.14 1332.85L1127.16 1330.04L1127.87 1325.82L1134.89 1320.21L1135.59 1306.16L1138.4 1301.25L1132.08 1292.82L1138.4 1283.69L1141.21 1282.29L1139.1 1276.67L1130.67 1287.2L1126.46 1290.01L1128.57 1297.74L1132.08 1300.55L1129.97 1317.4L1122.25 1323.02L1116.63 1330.74L1114.52 1338.46L1108.2 1339.17L1105.4 1334.25H1100.48L1093.46 1330.74L1089.95 1334.25L1083.63 1335.65L1080.82 1330.74L1082.93 1323.72L1080.12 1318.8L1073.1 1336.36L1068.88 1337.76L1063.27 1331.44L1066.07 1327.93L1058.35 1326.53L1056.24 1330.04L1048.52 1333.55L1040.8 1332.85L1026.05 1330.04L1030.97 1320.91L1026.05 1318.1L1027.46 1312.48L1035.88 1311.78L1043.6 1309.67L1049.92 1311.08L1059.05 1308.27L1068.88 1306.86L1070.99 1300.55L1076.61 1294.93L1073.1 1287.91L1074.5 1285.1L1080.12 1284.4L1083.63 1276.67V1272.46L1078.71 1258.42L1074.5 1259.82L1078.01 1271.76L1081.52 1275.27L1078.71 1279.48L1070.29 1283.69V1290.01L1073.1 1292.82L1065.37 1303.35L1054.84 1304.06L1049.22 1306.86L1046.41 1303.35L1040.8 1306.86L1030.26 1308.97L1027.46 1306.16L1035.18 1299.14L1029.56 1292.82L1030.97 1285.8L1026.05 1285.1L1014.11 1286.5L1006.39 1290.72L1001.47 1287.91L1000.77 1282.99L1005.69 1277.37L1016.92 1279.48H1027.46L1030.26 1277.37L1013.41 1275.27L1007.09 1271.76L1004.99 1266.14L1001.47 1266.84L1003.58 1273.16L999.368 1279.48L991.644 1282.99L986.027 1281.59L976.899 1274.57L974.09 1279.48H963.558L969.175 1285.1L964.26 1290.01L955.834 1284.4L948.812 1282.99L943.195 1278.78L931.96 1274.57L932.662 1270.35L923.534 1266.84L926.343 1252.8L915.81 1255.61L904.575 1246.48L903.171 1238.05L907.384 1235.24L916.512 1232.43L920.725 1229.63L932.662 1231.03L936.173 1233.14L948.11 1231.03L955.132 1226.82L953.025 1224.01L943.897 1229.63L924.938 1227.52L912.299 1224.71L903.873 1225.41V1221.2L913.001 1216.99L916.512 1211.37L922.129 1207.86L924.236 1202.24L924.938 1193.11L929.151 1187.5L941.088 1183.98L962.153 1182.58L988.836 1186.09L993.049 1184.69L997.262 1176.96L994.453 1176.26L989.538 1183.28L958.642 1178.37L945.301 1180.47L939.684 1176.96L935.471 1181.88L930.556 1180.47L932.662 1171.35L929.853 1169.24L927.045 1179.07L920.023 1176.96L916.512 1179.77L927.747 1184.69L922.832 1186.79L919.321 1195.22L920.725 1200.84L916.512 1207.16L908.086 1209.26L906.682 1203.65L903.171 1200.84L902.469 1191.01L896.851 1181.88L897.554 1174.16L895.447 1163.62L898.256 1150.28L905.277 1146.07L911.597 1146.77L913.703 1141.15L915.108 1129.22L920.023 1123.6L928.449 1120.79L929.151 1129.22L934.066 1126.41L929.853 1117.98L937.577 1110.26L943.195 1109.56L950.918 1100.43L954.429 1099.02L962.855 1100.43L969.175 1105.34L969.877 1112.36L973.388 1117.28L983.218 1127.81L985.325 1123.6L974.792 1115.17L973.388 1105.34L970.579 1100.43L972.686 1092L965.664 1096.21L953.025 1094.11L951.621 1087.09L948.11 1080.77V1072.34L953.727 1065.32L961.451 1059L967.068 1056.19L971.984 1044.96L968.473 1032.32L965.664 1038.64L967.068 1047.76L961.451 1055.49L953.727 1061.11L945.301 1068.13L943.195 1080.77L929.853 1087.09L926.343 1093.41L912.299 1101.13L902.469 1106.75L897.554 1112.36L895.447 1104.64L891.936 1099.02L885.617 1095.51L882.106 1089.19L881.404 1082.17L884.915 1073.74L894.745 1069.53L891.936 1067.42L884.212 1068.83L879.297 1073.74L868.062 1097.62L861.743 1104.64L856.828 1100.43L860.339 1097.62V1089.89L865.956 1087.79L868.765 1080.77L867.36 1067.42L876.488 1042.15L875.786 1030.21L864.552 1035.83L852.615 1033.02L848.402 1027.4L846.295 1014.76L843.486 991.591L834.358 983.164L830.847 983.866L817.506 969.121L816.102 959.993L816.804 950.163L811.187 945.247L809.08 936.119L818.208 938.928L822.421 934.012L825.23 936.119L827.336 943.843L832.252 944.545L846.997 958.588L849.806 952.269L856.828 950.865L858.934 945.95L866.658 950.163L875.084 949.461L875.786 945.95H863.147L856.828 943.141L853.317 950.163L845.593 952.269L839.273 947.354L837.869 943.141L832.252 941.034L823.124 929.098L822.421 922.778L825.23 913.649L823.826 905.926L826.634 901.713L831.55 900.309L834.358 894.691L832.252 890.478L836.465 880.648L832.252 876.435L827.336 886.967L820.315 894.691L818.208 899.606L809.782 900.309V906.628L798.548 913.649L795.739 919.969L789.419 925.587L788.015 931.204V950.865L784.504 958.588L780.993 957.184L760.63 934.012L758.524 933.31L749.396 920.671L750.8 917.16L745.885 913.649L743.778 909.436L739.565 908.734L733.246 899.606L728.331 896.798L719.904 883.457L721.309 880.648L720.607 865.2L724.82 855.37L731.841 854.668L736.757 847.646V844.837L722.713 851.859L719.202 854.668L714.287 849.752L705.861 848.348V843.432L710.074 841.326L708.67 832.198L706.563 827.985L698.839 831.496L691.818 829.389L689.711 819.559L692.52 814.643L698.137 813.941L693.222 808.324L693.924 799.196L700.946 794.983L705.861 805.516L724.117 830.794L721.309 820.963L711.478 809.729L699.541 790.77L698.839 785.855L705.159 780.237L712.181 777.429L715.691 764.79L720.607 761.279L717.096 755.661L722.713 745.831L726.224 743.724L737.459 745.831L741.672 740.214L747.289 743.022L753.609 740.916L731.841 738.81L728.331 736.703L731.841 725.468L739.565 713.531L743.076 703.701L747.991 700.19L750.098 691.062L753.609 687.551L750.8 681.231V674.911L745.885 672.805L744.48 679.125L740.97 688.253L741.672 700.892L737.459 705.105L735.352 716.34L728.331 726.17L722.713 739.512L718.5 738.81L714.989 728.277L722.011 712.829L731.139 701.594L728.331 692.466L726.224 674.911L722.011 667.188L719.904 658.06L722.011 644.017L717.798 636.995L719.202 630.675L725.522 620.845L729.033 613.121L727.628 609.61L726.224 599.78L722.713 587.843L718.5 585.034L711.478 587.14L696.031 582.225L691.818 569.586L689.009 566.778L677.072 562.564L667.944 550.628L661.624 546.415L647.581 544.308L640.559 541.499L602.642 514.817L594.216 516.221L585.088 515.519L582.981 513.412L582.279 502.178L578.066 492.347L579.47 486.028L561.214 476.9L566.831 451.622L542.255 444.6L551.384 427.046L540.851 405.279L525.403 382.809L496.614 325.933L483.975 306.974L476.954 286.612L460.804 264.844L455.888 252.205L459.399 247.29L453.782 238.864L440.441 226.225L434.823 217.799L427.099 203.755L421.482 196.734L393.395 180.584L385.671 171.456L383.565 161.625L379.352 160.221V148.284L373.032 139.156L366.713 137.752L358.287 128.623L354.776 119.495L337.222 114.58L330.2 104.749L332.306 97.7277L323.88 91.408L329.498 82.2799L330.2 72.4497L324.583 62.6192L318.965 59.8103L311.241 47.8738L299.304 39.4477L293.687 33.1279L258.579 52.7886L231.896 59.8103L224.874 64.7256L231.896 70.3429L233.3 74.5562L230.492 80.8754L223.47 87.1952L215.044 85.0887V111.771L213.64 117.388L207.32 130.027L203.809 132.836L189.766 132.134L185.553 133.538L150.444 158.817L139.21 170.754L134.294 172.158L132.89 165.838L134.997 158.114L127.273 124.41L124.464 119.495L46.5231 39.4477L41.6079 31.0215L38.7992 18.3825L35.2884 14.1693L14.2233 3.63671L10.0103 0.125854H1218.45H1521.08V894.691L1522.49 904.522L1528.8 908.032L1527.4 914.352L1535.83 916.458L1541.44 924.885L1540.74 929.8L1528.1 927.693L1529.51 934.714L1528.1 940.332L1534.42 942.439L1540.04 955.078L1549.17 962.801L1551.98 959.993L1562.51 962.801H1570.23L1572.34 972.632L1577.96 982.462L1587.79 985.973L1597.62 992.293L1599.72 980.356L1603.23 978.952L1612.36 985.271L1620.09 995.804L1622.19 1001.42L1627.11 1007.74L1625.7 1014.06L1631.32 1026L1638.34 1023.19L1646.07 1033.02V1038.64L1650.98 1042.85L1655.2 1051.98L1651.68 1058.3L1653.09 1063.91L1657.3 1067.42V1072.34L1660.11 1076.55L1658.71 1084.28L1662.92 1092.7L1667.13 1089.19L1674.15 1088.49L1675.56 1082.87L1679.77 1077.26L1688.2 1084.98L1698.73 1087.79L1700.84 1092L1700.13 1097.62L1693.81 1103.94L1698.73 1114.47L1705.75 1116.58L1712.07 1123.6L1719.79 1120.79L1728.92 1122.9L1734.54 1118.68L1737.35 1134.13L1744.37 1141.85L1749.99 1144.66L1754.9 1150.98L1756.31 1158L1764.03 1176.26L1770.35 1177.67L1778.08 1166.43L1783.69 1164.32L1790.71 1177.67L1792.12 1186.09L1799.84 1190.3L1801.25 1195.22L1806.16 1198.73L1807.57 1205.05L1814.59 1210.67V1219.8L1819.5 1228.92H1823.72L1826.52 1234.54L1834.25 1237.35L1835.65 1240.16L1836.36 1249.29L1845.48 1256.31L1852.51 1257.01L1856.72 1262.63L1867.95 1271.05L1872.17 1280.18L1867.25 1282.29L1865.85 1286.5L1872.17 1288.61L1875.68 1293.52L1890.42 1301.25L1894.64 1309.67L1892.53 1313.18L1902.36 1324.42L1904.47 1320.21L1909.38 1318.8L1917.1 1322.31L1929.04 1341.97L1935.36 1348.29L1938.17 1367.25L1939.57 1377.78L1943.79 1383.4L1945.89 1394.64L1942.38 1397.44V1405.87L1947.3 1419.21L1942.38 1437.47L1938.17 1443.79L1947.3 1448.7H1952.21L1949.4 1457.13V1463.45L1952.21 1469.07L1959.24 1473.98L1962.75 1482.41L1966.26 1483.11L1966.96 1489.43L1978.9 1492.24L1984.51 1496.45L1985.22 1502.77L1992.94 1508.39L1991.53 1515.41Z" fill="#006D32" fill-opacity="0.2"/>
<path d="M1139.1 1362.34V1358.83L1131.38 1354.61L1127.16 1359.53L1130.67 1367.25L1132.78 1368.66L1136.99 1377.08L1144.02 1371.46L1139.1 1365.85V1362.34ZM1139.1 1362.34L1144.72 1367.25L1151.04 1368.66V1359.53L1146.12 1354.61L1141.21 1358.12L1139.1 1362.34ZM1276.02 1542.79H1270.41L1266.9 1540.69V1535.07L1276.02 1542.79ZM1243.02 1527.35L1248.64 1533.67L1245.83 1535.07L1253.55 1541.39L1249.34 1547.01L1243.72 1548.41L1239.51 1542.09L1238.11 1534.37L1243.02 1527.35ZM1257.77 1530.16L1253.55 1530.86L1245.83 1521.73L1256.36 1525.94L1257.77 1530.16ZM1227.57 1497.86L1223.36 1498.56L1216.34 1496.45L1217.04 1490.13L1227.57 1497.86ZM1048.52 1495.75L1044.31 1495.05L1042.2 1490.13L1049.92 1491.54L1048.52 1495.75ZM1061.16 1497.15L1054.84 1496.45L1051.33 1490.83L1056.24 1485.92L1061.86 1489.43L1061.16 1497.15ZM1040.09 1481L1037.99 1483.81L1027.46 1481L1026.75 1468.36L1034.48 1466.26L1038.69 1470.47L1040.09 1481ZM1253.55 1473.28L1250.04 1468.36L1254.96 1463.45L1257.06 1469.07L1253.55 1473.28ZM1177.72 1452.21L1185.44 1453.62L1190.36 1457.83L1178.42 1458.53L1177.72 1452.21ZM1257.77 1455.73L1255.66 1460.64L1246.53 1456.43L1250.04 1450.11L1254.96 1449.41L1257.77 1455.73ZM1155.95 1450.11L1150.33 1454.32L1149.63 1448L1155.95 1450.11ZM1148.93 1455.73L1144.72 1455.02L1138.4 1448.7L1141.21 1443.79L1148.93 1455.73ZM1202.3 1419.91L1198.08 1424.13L1195.27 1431.85L1191.06 1433.96L1187.55 1428.34L1192.47 1423.43L1202.3 1419.91ZM1177.72 1431.15L1182.63 1439.58L1190.36 1447.3L1188.25 1450.81L1173.51 1440.98L1169.29 1440.28L1166.48 1432.55L1155.25 1426.94L1151.04 1423.43L1151.74 1416.4L1155.25 1417.81L1159.46 1422.72L1172.8 1426.94L1177.72 1431.15ZM986.027 1410.08H990.24L994.453 1422.02L996.56 1437.47L991.644 1442.38L981.112 1438.17L972.686 1430.45L971.281 1424.13L974.09 1419.21L968.473 1412.89L984.623 1406.57L986.027 1410.08ZM1126.46 1389.72L1120.14 1376.38L1125.76 1370.06L1129.97 1371.46L1132.78 1384.1L1127.16 1386.21L1126.46 1389.72ZM1111.72 1391.83L1109.61 1391.13L1106.1 1381.3L1099.08 1374.27L1096.97 1362.34L1101.18 1356.02L1110.31 1363.74L1111.72 1368.66L1106.8 1375.68L1110.31 1383.4L1111.72 1391.83ZM1108.91 1344.08L1120.84 1365.15L1113.82 1370.76V1363.74L1111.01 1361.63L1107.5 1353.21L1103.29 1351.8L1094.16 1355.31L1093.46 1348.99H1099.78L1101.89 1337.76L1108.91 1344.08ZM1084.33 1341.27L1073.8 1344.78L1070.29 1341.27L1077.31 1337.76H1082.93L1084.33 1341.27ZM1091.35 1347.59L1085.74 1348.29L1081.52 1345.48L1086.44 1339.17L1095.57 1334.95L1098.37 1338.46L1091.35 1347.59ZM1062.56 1341.27L1049.22 1339.87L1054.14 1334.95L1060.46 1333.55L1065.37 1338.46L1062.56 1341.27ZM1026.75 1323.02L1021.14 1325.82L1009.9 1327.93L998.666 1324.42L1016.22 1320.21L1022.54 1317.4L1026.75 1323.02ZM1015.52 1317.4L1006.39 1320.21L1001.47 1315.99L1014.82 1313.89L1015.52 1317.4ZM962.855 1309.67H974.09V1315.29L962.855 1312.48L956.536 1313.89L957.238 1308.97L962.855 1309.67ZM1030.26 1299.84L1026.75 1301.95L1022.54 1311.08L1010.6 1308.97L1009.2 1311.78L997.262 1311.08L998.666 1305.46L1013.41 1291.42L1023.94 1289.31L1030.26 1299.84ZM996.56 1287.91L997.262 1291.42L986.729 1295.63L977.601 1294.23L973.388 1290.01L979.708 1287.91H996.56ZM896.149 1284.4L920.725 1293.52L925.64 1296.33L928.449 1305.46L934.066 1304.06L945.301 1311.08L950.216 1315.29L957.238 1315.99L957.94 1318.1L967.771 1320.21L984.623 1324.42L995.155 1329.33L1008.5 1333.55L1016.22 1332.14L1023.94 1334.25H1029.56L1035.88 1335.65L1048.52 1343.38L1058.35 1344.08L1066.07 1348.29L1078.01 1346.19L1086.44 1350.4L1089.95 1353.21L1096.97 1377.08L1100.48 1379.19L1106.8 1390.42L1110.31 1401.66L1134.18 1426.23L1131.38 1438.87L1140.5 1457.13L1146.12 1457.83L1153.14 1464.85L1160.87 1468.36L1174.91 1471.17L1187.55 1476.79H1191.06L1198.08 1484.51L1207.21 1486.62L1209.32 1497.15L1218.45 1499.96L1223.36 1509.09L1221.25 1516.11L1236 1534.37L1238.11 1540.69L1238.81 1549.11L1240.91 1552.62L1240.21 1558.24H1245.13L1251.45 1552.62L1252.15 1560.35L1256.36 1573.69L1259.17 1576.5L1260.58 1583.52L1254.96 1586.33L1248.64 1581.41L1238.81 1595.46L1231.08 1596.86L1221.25 1591.24L1212.13 1590.54L1193.17 1582.82L1172.8 1572.29V1567.37L1168.59 1566.67L1165.08 1569.48L1151.04 1565.97L1139.1 1556.84L1117.33 1547.01L1109.61 1538.58L1117.33 1530.16L1123.65 1526.64L1125.76 1519.62L1130.67 1517.52L1139.1 1507.69L1134.89 1505.58L1133.48 1512.6L1127.16 1516.11L1117.33 1516.81L1113.12 1514.71L1106.8 1519.62L1095.57 1516.11L1087.84 1523.84L1085.74 1524.54L1075.2 1518.22L1066.07 1507.69L1058.35 1506.28L1059.75 1499.26L1065.37 1501.37L1073.1 1494.34L1068.88 1492.24L1058.35 1481H1052.73L1048.52 1485.92L1042.9 1481L1044.31 1475.39L1039.39 1467.66L1040.8 1460.64L1024.65 1465.56L1022.54 1470.47L1013.41 1463.45L1012.01 1457.83L1006.39 1461.34L1008.5 1466.26L1004.99 1468.36L1000.07 1464.15L1000.77 1450.11V1443.09L1009.2 1436.77L1018.33 1437.47L1034.48 1435.36L1029.56 1431.15L1018.33 1435.36L1009.2 1432.55L1007.09 1427.64L1000.07 1428.34L997.262 1425.53L994.453 1415L993.751 1405.17L989.538 1407.28L984.623 1403.06L978.303 1405.87L971.281 1406.57L970.579 1409.38L954.429 1408.68L948.11 1398.85L947.408 1395.34L953.025 1383.4L944.599 1374.27L943.195 1384.81L936.875 1388.32L934.066 1386.91L929.151 1381.3L927.045 1376.38L917.214 1377.78L914.406 1370.06L903.873 1382L894.745 1378.49V1374.98L904.575 1363.74L898.256 1357.42L901.767 1356.02L896.149 1349.7L893.341 1352.51L889.127 1349.7L893.341 1334.25L897.554 1335.65L906.682 1332.14H919.321L926.343 1321.61L917.214 1317.4L901.064 1316.7L902.469 1318.8H911.597L918.619 1323.02L899.66 1331.44L887.021 1333.55L882.106 1336.36L869.467 1326.53L866.658 1318.1L861.041 1316.7L859.636 1309.67L856.828 1306.86L854.721 1294.93L862.445 1292.82L871.573 1287.2L874.382 1287.91L880.701 1283.69L884.915 1285.1L896.149 1284.4ZM985.325 1285.8L973.388 1287.91L981.112 1281.59L985.325 1285.8ZM913.703 1287.91L901.064 1284.4L899.66 1281.59L909.49 1278.78L913.001 1282.29L913.703 1287.91ZM899.66 1278.78L892.638 1280.88L893.341 1275.27L899.66 1278.78ZM896.149 1207.16V1211.37L891.234 1214.18L886.319 1208.56L879.999 1205.75L874.382 1188.2L878.595 1181.18L885.617 1175.56L888.425 1184.69L892.638 1191.71L893.341 1201.54L896.149 1207.16ZM853.317 1149.58L847.699 1146.07L854.019 1142.56L853.317 1149.58ZM889.127 1132.03L890.532 1141.85L887.723 1151.69L883.51 1160.11L885.617 1166.43L884.212 1170.64L875.786 1172.75L877.191 1165.73L875.786 1158.71L866.658 1157.3L870.871 1150.98L868.765 1146.07L873.68 1135.54L877.893 1133.43L889.127 1132.03ZM647.581 1126.41L652.496 1127.81L644.07 1134.13L648.283 1142.56L639.857 1139.75L638.453 1127.81L639.857 1121.49L647.581 1126.41ZM896.149 1117.98L891.234 1128.51L878.595 1127.81L880.701 1121.49L883.51 1118.68L896.149 1117.98ZM869.467 1137.64L863.147 1126.41L868.062 1115.87H874.382V1127.81L869.467 1137.64ZM864.552 1109.56L865.254 1114.47L862.445 1122.9L855.423 1120.09L853.317 1123.6L844.891 1120.09L851.21 1109.56H864.552ZM889.83 1101.83L894.043 1114.47L891.936 1117.28L880.701 1116.58L877.191 1108.85L872.978 1107.45L882.106 1101.13L889.83 1101.83ZM936.875 1106.75L933.364 1107.45L927.747 1113.07L920.725 1115.87L915.108 1122.19L910.193 1134.83L910.895 1139.75L905.277 1143.26L895.447 1146.07L894.745 1139.75L896.149 1129.22L901.064 1115.17L906.682 1108.15L913.001 1107.45L925.64 1099.72L933.364 1089.19L946.705 1084.98L947.408 1092.7L949.514 1094.81L943.897 1102.53L936.875 1106.75ZM832.954 1077.96L837.167 1080.06L837.869 1091.3L835.06 1102.53L828.741 1098.32L825.932 1084.98L826.634 1079.36L832.954 1077.96ZM844.891 1062.51L849.104 1076.55L848.402 1082.87L844.189 1083.58L832.954 1075.15L828.039 1073.04L829.443 1062.51H844.891ZM597.025 1046.36L604.748 1049.17L611.77 1044.96L613.877 1049.17L611.77 1057.59L608.259 1058.3L603.344 1054.08L599.833 1061.81L597.727 1054.08L593.514 1049.17L597.025 1046.36ZM856.828 1091.3L851.912 1092L849.806 1087.79L854.721 1079.36L851.912 1071.64L850.508 1058.3L853.317 1047.06L851.21 1043.55L856.828 1036.53L858.934 1047.06L861.041 1050.57L861.743 1063.91L864.552 1076.55L861.743 1084.28L856.828 1091.3ZM802.761 1048.47L811.889 1058.3L813.293 1061.81V1071.64L808.378 1077.96L806.271 1071.64L802.761 1072.34L792.93 1059L784.504 1040.74L787.313 1032.32L799.25 1043.55L802.761 1048.47ZM866.658 1059.7L863.147 1053.38L863.849 1049.17L861.041 1039.34L869.467 1036.53L870.871 1042.15L866.658 1059.7ZM850.508 1037.23L848.402 1038.64L849.104 1048.47L843.486 1046.36L846.295 1028.1L849.806 1030.91L850.508 1037.23ZM552.086 1013.36L543.66 1014.06L540.851 1009.15L551.384 1010.55L552.086 1013.36ZM760.63 1000.02L752.204 998.613L748.693 992.293L754.311 991.591L760.63 1000.02ZM774.674 991.591L778.887 999.315L782.398 1002.83L784.504 1009.85L780.291 1013.36L776.078 1009.85L769.759 999.315L769.056 995.102L763.439 990.888L766.95 984.569L770.461 985.271L774.674 991.591ZM585.79 976.143L587.896 983.866L586.492 988.08L592.812 990.888L598.429 996.506L600.535 1002.12L591.407 1002.83L582.981 1000.02L582.279 1003.53L589.301 1007.04L599.131 1009.85L601.94 1012.66L599.833 1020.38L593.514 1026H583.683L580.875 1027.4L582.981 1035.83L587.896 1038.64L582.981 1045.66L590.705 1049.17L594.216 1055.49L592.812 1059L596.322 1064.62V1069.53L601.94 1073.04L611.77 1074.45L610.366 1077.26L615.983 1081.47L613.877 1087.79L620.898 1092.7L622.303 1084.28L629.324 1085.68L624.409 1091.3L622.303 1101.83L627.92 1102.53L637.751 1099.02L641.964 1104.64L642.666 1111.66L648.283 1110.96L645.474 1117.98L639.155 1116.58L634.942 1124.3L625.814 1120.79L624.409 1115.87L618.792 1113.77L607.557 1097.62H604.748L601.238 1085.68L594.918 1076.55L588.599 1073.74L578.768 1065.32L574.555 1055.49L568.938 1051.98L559.107 1042.15L550.681 1031.61L552.086 1027.4L546.468 1025.29L542.255 1017.57L550.681 1016.17L554.894 1019.68L557.703 1016.17L554.894 1009.85L551.384 1006.34H542.255L535.936 1004.23H529.616L526.808 989.484L533.127 992.293H540.149L545.064 988.782L549.979 989.484L564.023 988.782L571.044 981.76L577.364 978.25L585.79 976.143ZM837.167 989.484L844.189 1007.04L845.593 1018.27L844.189 1030.21L838.571 1061.11L826.634 1061.81L828.039 1054.79L827.336 1043.55L830.145 1031.61L835.06 1021.78L827.336 1021.08L828.741 1028.81L826.634 1031.61L825.23 1044.96L826.634 1051.28L818.91 1054.79L813.293 1052.68L802.761 1043.55L797.143 1027.4L799.25 1022.49L793.632 1018.27L792.228 1007.04L795.037 1000.02L799.952 997.91L800.654 983.164L802.058 981.76L801.356 969.823L805.569 968.419L814.697 971.228L823.826 981.058L830.847 986.675L837.167 989.484ZM796.441 995.804L788.015 996.506L780.993 992.293L781.695 980.356L787.313 972.632L785.206 966.312L792.93 968.419L795.037 981.058L794.334 985.271L796.441 995.804ZM813.995 963.504L810.484 967.015L806.271 964.908L797.845 967.717L795.739 961.397L802.058 950.163V945.247L805.569 938.928L813.995 955.78V963.504ZM709.372 934.012L722.011 944.545L730.437 949.461L737.459 957.184L738.863 961.397L748.693 978.952L747.991 987.377L741.672 985.271L739.565 988.782L732.544 987.377L727.628 976.845L722.011 974.037L721.309 968.419L715.691 964.908L710.776 958.588L703.052 957.886L693.924 941.034L686.2 935.417V929.098L689.009 924.885L692.52 925.587L709.372 934.012ZM816.804 931.204L809.08 931.906L799.952 942.439V950.163H793.632L795.037 938.928L794.334 926.289L802.761 918.565L807.676 916.458H815.4L819.613 914.352L816.804 926.991V931.204ZM719.904 929.8L714.287 931.204L707.968 930.502L701.648 926.991L696.031 918.565L705.159 909.436L710.776 906.628V914.352L717.096 916.458L719.904 929.8ZM692.52 903.82L688.307 908.032L679.881 903.82L682.689 898.202L692.52 903.82ZM747.289 920.671L753.609 931.204L773.269 952.269L775.376 957.184L780.993 962.099V974.739L778.887 977.548L775.376 965.61L771.163 970.526L766.95 968.419L769.056 980.356L762.035 981.058L755.013 969.121L744.48 959.993L741.672 955.078L742.374 948.758L736.054 946.652L738.161 938.928L733.246 929.8L725.522 932.608L720.607 922.076V915.756L712.181 912.947V903.117L705.159 898.202L706.563 891.882L712.181 887.669L725.522 896.798L733.246 905.926L741.672 912.245L747.289 920.671ZM707.265 874.328L709.372 879.946L708.67 884.861L704.457 889.776L700.244 898.202H696.733L691.818 889.776L695.328 882.755L691.818 881.35L690.413 888.371H684.796L679.881 882.052H674.263L672.157 886.967L677.072 891.882L676.37 898.202L671.455 895.393L670.753 886.967L674.966 877.839L679.881 872.924L696.733 863.795L700.946 866.604L707.265 874.328ZM490.295 854.668L507.849 859.583L518.382 857.476L523.999 860.285L526.105 870.817L533.127 868.008L537.34 863.093L545.766 860.987L550.681 866.604V871.519L557.703 877.137L557.001 885.563L560.512 892.584L558.405 897.5L554.192 898.904L550.681 906.628L540.149 908.734L535.234 912.947L528.212 916.458H519.084L524.701 922.076L530.318 924.182L538.745 920.671L539.447 923.48L546.468 926.991L545.766 919.969L553.49 922.778L557.001 916.458L554.192 906.628L560.512 897.5L563.32 891.18L560.512 886.967L559.107 872.222L566.129 873.626L575.96 870.817L592.812 860.285L595.62 865.902L593.514 877.839L589.301 887.669L583.683 896.095L579.47 905.926V914.352L574.555 927.693L575.96 934.714L573.853 940.332L575.96 949.461L576.662 962.099L572.449 972.632L568.938 976.143H561.916L551.384 979.654L549.979 983.866L559.107 983.164L554.192 988.782L544.362 987.377L538.042 990.186L532.425 989.484L523.297 982.462L523.999 978.952L514.169 972.632L520.488 969.823L524.701 964.908L509.253 967.717L512.764 960.695L527.51 961.397L532.425 966.312L535.936 963.504L530.318 959.993L528.212 955.078L518.382 952.269L509.253 948.056L502.934 947.354L495.912 940.332L497.316 934.714L494.508 930.502L498.721 927.693L491.699 921.374L495.21 916.458L488.89 909.436L481.167 905.224L485.38 901.011L479.06 890.478L483.975 876.435L487.486 870.817L483.273 862.391L486.784 856.774L490.295 854.668ZM711.478 860.285L706.563 856.072L708.67 849.752L713.585 851.859L715.691 857.476L711.478 860.285ZM676.37 860.285L672.859 860.987L664.433 853.263L667.944 847.646L676.37 856.774V860.285ZM491.699 850.454L483.975 846.241L486.784 841.326L492.401 844.135L491.699 850.454ZM698.839 842.73L691.115 835.007L694.626 831.496L700.244 839.921L698.839 842.73ZM707.265 838.517L700.946 842.028L700.244 836.411L703.755 831.496L707.968 834.305L707.265 838.517ZM667.242 812.537L670.05 819.559H663.029L659.518 814.643L665.135 809.729L667.242 812.537ZM668.646 792.174L666.54 802.005L651.794 814.643V803.409L655.305 790.77L663.731 793.578L668.646 792.174ZM691.818 777.429L685.498 780.237L679.179 772.513L687.605 766.896H691.818L693.924 771.811L691.818 777.429ZM710.776 768.3L711.478 772.513L705.861 778.833L703.052 773.918L710.776 768.3ZM696.733 771.811L691.818 763.386L694.626 760.577L707.968 743.724L713.585 735.299L716.394 743.724L714.287 750.044L707.265 761.279L696.733 771.811ZM1991.53 1515.41H1302.71L1292.88 1509.79L1292.17 1504.18H1287.26L1279.53 1510.49L1276.02 1515.41L1271.81 1506.98L1276.73 1501.37L1266.19 1498.56L1266.9 1491.54L1269 1487.32L1263.38 1481L1280.24 1478.9L1266.19 1472.58L1261.98 1473.98L1260.58 1467.66L1263.38 1464.85V1441.68L1257.06 1443.79L1244.43 1451.51L1245.83 1461.34L1238.81 1466.96L1221.25 1457.83L1214.23 1457.13L1206.51 1450.81L1198.78 1437.47V1431.85L1202.3 1425.53L1208.61 1424.13L1217.04 1437.47L1219.85 1452.21L1223.36 1448.7L1222.66 1440.28L1217.74 1431.15L1209.32 1419.21L1212.83 1410.79L1212.13 1401.66L1207.21 1396.04L1208.61 1391.13L1219.15 1386.91L1223.36 1380.59L1219.15 1379.89L1214.23 1385.51L1205.1 1389.72L1204.4 1400.25L1210.72 1408.68L1205.81 1415.7L1200.19 1412.19L1197.38 1415.7L1190.36 1419.21L1172.1 1420.62L1162.97 1417.11L1161.57 1411.49L1152.44 1402.36L1145.42 1398.15L1138.4 1387.61L1144.72 1389.02L1149.63 1385.51L1151.04 1376.38L1153.85 1371.46L1155.95 1363.74L1153.14 1356.02L1147.53 1352.51L1151.74 1343.38L1137.7 1353.21L1127.16 1350.4L1125.06 1347.59L1119.44 1351.8L1118.74 1339.87L1120.14 1332.85L1127.16 1330.04L1127.87 1325.82L1134.89 1320.21L1135.59 1306.16L1138.4 1301.25L1132.08 1292.82L1138.4 1283.69L1141.21 1282.29L1139.1 1276.67L1130.67 1287.2L1126.46 1290.01L1128.57 1297.74L1132.08 1300.55L1129.97 1317.4L1122.25 1323.02L1116.63 1330.74L1114.52 1338.46L1108.2 1339.17L1105.4 1334.25H1100.48L1093.46 1330.74L1089.95 1334.25L1083.63 1335.65L1080.82 1330.74L1082.93 1323.72L1080.12 1318.8L1073.1 1336.36L1068.88 1337.76L1063.27 1331.44L1066.07 1327.93L1058.35 1326.53L1056.24 1330.04L1048.52 1333.55L1040.8 1332.85L1026.05 1330.04L1030.97 1320.91L1026.05 1318.1L1027.46 1312.48L1035.88 1311.78L1043.6 1309.67L1049.92 1311.08L1059.05 1308.27L1068.88 1306.86L1070.99 1300.55L1076.61 1294.93L1073.1 1287.91L1074.5 1285.1L1080.12 1284.4L1083.63 1276.67V1272.46L1078.71 1258.42L1074.5 1259.82L1078.01 1271.76L1081.52 1275.27L1078.71 1279.48L1070.29 1283.69V1290.01L1073.1 1292.82L1065.37 1303.35L1054.84 1304.06L1049.22 1306.86L1046.41 1303.35L1040.8 1306.86L1030.26 1308.97L1027.46 1306.16L1035.18 1299.14L1029.56 1292.82L1030.97 1285.8L1026.05 1285.1L1014.11 1286.5L1006.39 1290.72L1001.47 1287.91L1000.77 1282.99L1005.69 1277.37L1016.92 1279.48H1027.46L1030.26 1277.37L1013.41 1275.27L1007.09 1271.76L1004.99 1266.14L1001.47 1266.84L1003.58 1273.16L999.368 1279.48L991.644 1282.99L986.027 1281.59L976.899 1274.57L974.09 1279.48H963.558L969.175 1285.1L964.26 1290.01L955.834 1284.4L948.812 1282.99L943.195 1278.78L931.96 1274.57L932.662 1270.35L923.534 1266.84L926.343 1252.8L915.81 1255.61L904.575 1246.48L903.171 1238.05L907.384 1235.24L916.512 1232.43L920.725 1229.63L932.662 1231.03L936.173 1233.14L948.11 1231.03L955.132 1226.82L953.025 1224.01L943.897 1229.63L924.938 1227.52L912.299 1224.71L903.873 1225.41V1221.2L913.001 1216.99L916.512 1211.37L922.129 1207.86L924.236 1202.24L924.938 1193.11L929.151 1187.5L941.088 1183.98L962.153 1182.58L988.836 1186.09L993.049 1184.69L997.262 1176.96L994.453 1176.26L989.538 1183.28L958.642 1178.37L945.301 1180.47L939.684 1176.96L935.471 1181.88L930.556 1180.47L932.662 1171.35L929.853 1169.24L927.045 1179.07L920.023 1176.96L916.512 1179.77L927.747 1184.69L922.832 1186.79L919.321 1195.22L920.725 1200.84L916.512 1207.16L908.086 1209.26L906.682 1203.65L903.171 1200.84L902.469 1191.01L896.851 1181.88L897.554 1174.16L895.447 1163.62L898.256 1150.28L905.277 1146.07L911.597 1146.77L913.703 1141.15L915.108 1129.22L920.023 1123.6L928.449 1120.79L929.151 1129.22L934.066 1126.41L929.853 1117.98L937.577 1110.26L943.195 1109.56L950.918 1100.43L954.429 1099.02L962.855 1100.43L969.175 1105.34L969.877 1112.36L973.388 1117.28L983.218 1127.81L985.325 1123.6L974.792 1115.17L973.388 1105.34L970.579 1100.43L972.686 1092L965.664 1096.21L953.025 1094.11L951.621 1087.09L948.11 1080.77V1072.34L953.727 1065.32L961.451 1059L967.068 1056.19L971.984 1044.96L968.473 1032.32L965.664 1038.64L967.068 1047.76L961.451 1055.49L953.727 1061.11L945.301 1068.13L943.195 1080.77L929.853 1087.09L926.343 1093.41L912.299 1101.13L902.469 1106.75L897.554 1112.36L895.447 1104.64L891.936 1099.02L885.617 1095.51L882.106 1089.19L881.404 1082.17L884.915 1073.74L894.745 1069.53L891.936 1067.42L884.212 1068.83L879.297 1073.74L868.062 1097.62L861.743 1104.64L856.828 1100.43L860.339 1097.62V1089.89L865.956 1087.79L868.765 1080.77L867.36 1067.42L876.488 1042.15L875.786 1030.21L864.552 1035.83L852.615 1033.02L848.402 1027.4L846.295 1014.76L843.486 991.591L834.358 983.164L830.847 983.866L817.506 969.121L816.102 959.993L816.804 950.163L811.187 945.247L809.08 936.119L818.208 938.928L822.421 934.012L825.23 936.119L827.336 943.843L832.252 944.545L846.997 958.588L849.806 952.269L856.828 950.865L858.934 945.95L866.658 950.163L875.084 949.461L875.786 945.95H863.147L856.828 943.141L853.317 950.163L845.593 952.269L839.273 947.354L837.869 943.141L832.252 941.034L823.124 929.098L822.421 922.778L825.23 913.649L823.826 905.926L826.634 901.713L831.55 900.309L834.358 894.691L832.252 890.478L836.465 880.648L832.252 876.435L827.336 886.967L820.315 894.691L818.208 899.606L809.782 900.309V906.628L798.548 913.649L795.739 919.969L789.419 925.587L788.015 931.204V950.865L784.504 958.588L780.993 957.184L760.63 934.012L758.524 933.31L749.396 920.671L750.8 917.16L745.885 913.649L743.778 909.436L739.565 908.734L733.246 899.606L728.331 896.798L719.904 883.457L721.309 880.648L720.607 865.2L724.82 855.37L731.841 854.668L736.757 847.646V844.837L722.713 851.859L719.202 854.668L714.287 849.752L705.861 848.348V843.432L710.074 841.326L708.67 832.198L706.563 827.985L698.839 831.496L691.818 829.389L689.711 819.559L692.52 814.643L698.137 813.941L693.222 808.324L693.924 799.196L700.946 794.983L705.861 805.516L724.117 830.794L721.309 820.963L711.478 809.729L699.541 790.77L698.839 785.855L705.159 780.237L712.181 777.429L715.691 764.79L720.607 761.279L717.096 755.661L722.713 745.831L726.224 743.724L737.459 745.831L741.672 740.214L747.289 743.022L753.609 740.916L731.841 738.81L728.331 736.703L731.841 725.468L739.565 713.531L743.076 703.701L747.991 700.19L750.098 691.062L753.609 687.551L750.8 681.231V674.911L745.885 672.805L744.48 679.125L740.97 688.253L741.672 700.892L737.459 705.105L735.352 716.34L728.331 726.17L722.713 739.512L718.5 738.81L714.989 728.277L722.011 712.829L731.139 701.594L728.331 692.466L726.224 674.911L722.011 667.188L719.904 658.06L722.011 644.017L717.798 636.995L719.202 630.675L725.522 620.845L729.033 613.121L727.628 609.61L726.224 599.78L722.713 587.843L718.5 585.034L711.478 587.14L696.031 582.225L691.818 569.586L689.009 566.778L677.072 562.564L667.944 550.628L661.624 546.415L647.581 544.308L640.559 541.499L602.642 514.817L594.216 516.221L585.088 515.519L582.981 513.412L582.279 502.178L578.066 492.347L579.47 486.028L561.214 476.9L566.831 451.622L542.255 444.6L551.384 427.046L540.851 405.279L525.403 382.809L496.614 325.933L483.975 306.974L476.954 286.612L460.804 264.844L455.888 252.205L459.399 247.29L453.782 238.864L440.441 226.225L434.823 217.799L427.099 203.755L421.482 196.734L393.395 180.584L385.671 171.456L383.565 161.625L379.352 160.221V148.284L373.032 139.156L366.713 137.752L358.287 128.623L354.776 119.495L337.222 114.58L330.2 104.749L332.306 97.7277L323.88 91.408L329.498 82.2799L330.2 72.4497L324.583 62.6192L318.965 59.8103L311.241 47.8738L299.304 39.4477L293.687 33.1279L258.579 52.7886L231.896 59.8103L224.874 64.7256L231.896 70.3429L233.3 74.5562L230.492 80.8754L223.47 87.1952L215.044 85.0887V111.771L213.64 117.388L207.32 130.027L203.809 132.836L189.766 132.134L185.553 133.538L150.444 158.817L139.21 170.754L134.294 172.158L132.89 165.838L134.997 158.114L127.273 124.41L124.464 119.495L46.5231 39.4477L41.6079 31.0215L38.7992 18.3825L35.2884 14.1693L14.2233 3.63671L10.0103 0.125854H1218.45H1521.08V894.691L1522.49 904.522L1528.8 908.032L1527.4 914.352L1535.83 916.458L1541.44 924.885L1540.74 929.8L1528.1 927.693L1529.51 934.714L1528.1 940.332L1534.42 942.439L1540.04 955.078L1549.17 962.801L1551.98 959.993L1562.51 962.801H1570.23L1572.34 972.632L1577.96 982.462L1587.79 985.973L1597.62 992.293L1599.72 980.356L1603.23 978.952L1612.36 985.271L1620.09 995.804L1622.19 1001.42L1627.11 1007.74L1625.7 1014.06L1631.32 1026L1638.34 1023.19L1646.07 1033.02V1038.64L1650.98 1042.85L1655.2 1051.98L1651.68 1058.3L1653.09 1063.91L1657.3 1067.42V1072.34L1660.11 1076.55L1658.71 1084.28L1662.92 1092.7L1667.13 1089.19L1674.15 1088.49L1675.56 1082.87L1679.77 1077.26L1688.2 1084.98L1698.73 1087.79L1700.84 1092L1700.13 1097.62L1693.81 1103.94L1698.73 1114.47L1705.75 1116.58L1712.07 1123.6L1719.79 1120.79L1728.92 1122.9L1734.54 1118.68L1737.35 1134.13L1744.37 1141.85L1749.99 1144.66L1754.9 1150.98L1756.31 1158L1764.03 1176.26L1770.35 1177.67L1778.08 1166.43L1783.69 1164.32L1790.71 1177.67L1792.12 1186.09L1799.84 1190.3L1801.25 1195.22L1806.16 1198.73L1807.57 1205.05L1814.59 1210.67V1219.8L1819.5 1228.92H1823.72L1826.52 1234.54L1834.25 1237.35L1835.65 1240.16L1836.36 1249.29L1845.48 1256.31L1852.51 1257.01L1856.72 1262.63L1867.95 1271.05L1872.17 1280.18L1867.25 1282.29L1865.85 1286.5L1872.17 1288.61L1875.68 1293.52L1890.42 1301.25L1894.64 1309.67L1892.53 1313.18L1902.36 1324.42L1904.47 1320.21L1909.38 1318.8L1917.1 1322.31L1929.04 1341.97L1935.36 1348.29L1938.17 1367.25L1939.57 1377.78L1943.79 1383.4L1945.89 1394.64L1942.38 1397.44V1405.87L1947.3 1419.21L1942.38 1437.47L1938.17 1443.79L1947.3 1448.7H1952.21L1949.4 1457.13V1463.45L1952.21 1469.07L1959.24 1473.98L1962.75 1482.41L1966.26 1483.11L1966.96 1489.43L1978.9 1492.24L1984.51 1496.45L1985.22 1502.77L1992.94 1508.39L1991.53 1515.41Z" stroke="#39D353" stroke-opacity="0.4" stroke-width="3.75023" stroke-linejoin="round"/>
</mask>
<g mask="url(#mask0_309_800)">
<g clip-path="url(#clip1_309_800)">
<line x1="113" y1="-210" x2="113" y2="1790" stroke="white" stroke-opacity="0.25" stroke-width="2"/>
<line x1="313" y1="-210" x2="313" y2="1790" stroke="white" stroke-opacity="0.25" stroke-width="2"/>
<line x1="513" y1="-210" x2="513" y2="1790" stroke="white" stroke-opacity="0.25" stroke-width="2"/>
<line x1="713" y1="-210" x2="713" y2="1790" stroke="white" stroke-opacity="0.25" stroke-width="2"/>
<line x1="913" y1="-210" x2="913" y2="1790" stroke="white" stroke-opacity="0.25" stroke-width="2"/>
<line x1="1113" y1="-210" x2="1113" y2="1790" stroke="white" stroke-opacity="0.25" stroke-width="2"/>
<line x1="1313" y1="-210" x2="1313" y2="1790" stroke="white" stroke-opacity="0.25" stroke-width="2"/>
<line x1="1513" y1="-210" x2="1513" y2="1790" stroke="white" stroke-opacity="0.25" stroke-width="2"/>
<line x1="1713" y1="-210" x2="1713" y2="1790" stroke="white" stroke-opacity="0.25" stroke-width="2"/>
<line x1="1913" y1="-210" x2="1913" y2="1790" stroke="white" stroke-opacity="0.25" stroke-width="2"/>
</g>
<g clip-path="url(#clip2_309_800)">
<line x1="112" y1="1469" x2="3952" y2="1469" stroke="white" stroke-opacity="0.25" stroke-width="2"/>
<line x1="112" y1="1269" x2="3952" y2="1269" stroke="white" stroke-opacity="0.25" stroke-width="2"/>
<line x1="112" y1="1069" x2="3952" y2="1069" stroke="white" stroke-opacity="0.25" stroke-width="2"/>
<line x1="112" y1="869" x2="3952" y2="869" stroke="white" stroke-opacity="0.25" stroke-width="2"/>
<line x1="112" y1="669" x2="3952" y2="669" stroke="white" stroke-opacity="0.25" stroke-width="2"/>
<line x1="112" y1="469" x2="3952" y2="469" stroke="white" stroke-opacity="0.25" stroke-width="2"/>
<line x1="112" y1="269" x2="3952" y2="269" stroke="white" stroke-opacity="0.25" stroke-width="2"/>
<line x1="112" y1="69" x2="3952" y2="69" stroke="white" stroke-opacity="0.25" stroke-width="2"/>
</g>
</g>
</g>
<defs>
<clipPath id="clip0_309_800">
<rect width="2000" height="1597.04" fill="white"/>
</clipPath>
<clipPath id="clip1_309_800">
<rect width="3840" height="1880" fill="white" transform="translate(112 -210)"/>
</clipPath>
<clipPath id="clip2_309_800">
<rect width="1880" height="3840" fill="white" transform="matrix(0 -1 1 0 112 1670)"/>
</clipPath>
</defs>
</svg>
