<svg width="837" height="263" viewBox="0 0 837 263" fill="none" xmlns="http://www.w3.org/2000/svg">
<path d="M700 262C667.7 258 639.8 234.8 629.8 203.5C627.8 197.1 626 187.3 626 182.3V177H637.8H649.6L650.9 184.8C653 197.9 656.2 205.5 663.6 215.1C677 232.6 702.7 241.8 723.5 236.5C750 229.8 766.9 210.3 770.5 182.3L771.2 177H783.1H795V182.9C795 189.7 791.3 205.3 787.9 212.5C779.4 230.9 763.4 246.9 745.5 255.1C732.5 261 714.2 263.8 700 262Z" fill="#2E338C"/>
<path d="M411.2 233.3C411.4 232.4 412.5 231.6 413.8 231.5C417.1 231.3 418.5 228.7 418.1 223.9C418 223 416.4 218.5 414.5 214C412.6 209.5 411 205.7 411 205.4C411 205.2 411.9 205 413.1 205C415.2 205 416.6 207.5 419.2 215.8C420.5 220.1 422 221.4 422 218.2C422 217.2 422.3 216 422.7 215.7C423.1 215.3 424.1 212.8 425 210.2C426.5 205.8 430 203 430 206.3C430 207.9 425.2 220.8 422.9 225.2C422.4 226.2 422 227.5 422 228.1C422 228.7 421.1 230.5 419.9 232.1C418.3 234.4 417.1 235 414.4 235C411.6 235 410.9 234.6 411.2 233.3Z" fill="#2E338C"/>
<path d="M13.7999 224.4C10.2999 222.6 10.0999 220 13.3999 220C14.7999 220 16.1999 220.5 16.4999 221C17.4999 222.7 22.5999 222.1 24.3999 220.1C27.1999 217 25.9999 214.8 20.4999 212.7C17.6999 211.7 14.6999 210.1 13.7999 209.3C11.2999 207 11.3999 199.9 13.8999 197.6C17.7999 194.1 28.9999 194.7 28.9999 198.4C28.9999 200.8 27.1999 201.2 24.0999 199.4C21.2999 197.8 20.9999 197.8 18.4999 199.4C16.5999 200.7 15.9999 201.8 16.1999 203.8C16.3999 206 17.3999 206.8 21.4999 208.3C28.2999 210.8 29.9999 212.6 29.9999 217.1C29.9999 224.3 20.9999 228.4 13.7999 224.4Z" fill="#2E338C"/>
<path d="M110.9 220.2C110.8 217 110.7 211.7 110.7 208.3C110.7 204.8 110.6 202 110.5 202C110.4 202 108.1 207.2 105.5 213.5C102.1 221.8 100.2 225 99.2 224.8C98.3 224.6 96.4 221.4 94.8 217.5C93.3 213.7 91.6 209.6 91.1 208.5C90.6 207.4 89.8 205.6 89.3 204.5C88.8 203.2 88.4 206.5 88.2 213.8C88 224.2 87.8 225 86 225C84.1 225 84 224.3 84 210.5V196H87.1C89.6 196 90.3 196.6 91.7 199.8C92.5 201.8 94.2 205.8 95.4 208.5C96.6 211.3 98 214.5 98.6 215.7C99.4 217.7 100.1 216.5 103.9 207C108.3 196.1 108.4 196 111.7 196H115V210.4C115 223.9 114.9 224.8 113 225.3C111.2 225.8 111 225.3 110.9 220.2Z" fill="#2E338C"/>
<path d="M144.7 220.9C143.4 217.9 141.2 212.7 139.9 209.3C138.6 205.8 137.2 203 136.8 203C136.3 203 136 208 136 214.1C136 224.1 135.8 225.1 134.3 224.8C132.7 224.5 132.5 222.9 132.2 210.2L131.9 196H135.5C138 196 139.2 196.5 139.6 197.8C140.3 200 141.3 202.3 143.8 208C144.9 210.5 146.1 213.6 146.5 214.9C147.5 218.1 148.4 216.9 152.8 206C156.6 196.6 156.7 196.5 160.3 196.2L164.1 195.9L163.8 210.2C163.5 224.2 163.4 224.5 161.3 224.8C159 225.1 159 225 159 213.3V201.5L154.5 212.4C152.1 218.5 149.4 224.1 148.5 224.9C147.2 226.2 146.8 225.8 144.7 220.9Z" fill="#2E338C"/>
<path d="M170.6 223.9C165.1 219.6 169.3 213 177.6 213C180.7 213 182 212.6 182 211.6C182 208.2 177.1 207.2 171.8 209.5C170.5 210 170 209.8 170 208.6C170 205 179.1 203.7 183 206.8C184.8 208.2 185.2 209.8 185.5 216C186 224.3 184.9 227.7 182.7 224.9C181.6 223.4 181.1 223.4 179 224.6C175.5 226.5 173.7 226.3 170.6 223.9ZM180.6 220.3C182.9 217.2 182.3 216 178.1 216C174 216 171.4 218 172.4 220.5C173.2 222.6 178.9 222.4 180.6 220.3Z" fill="#2E338C"/>
<path d="M191.3 225.3C190.3 224.9 190 220.8 190 209.4C190 194.7 190.1 194 192 194C193.9 194 194 194.7 194 203.5C194 208.7 194.2 213 194.4 213C194.6 213 196.6 211.2 198.8 209C202.3 205.4 207 203.6 207 205.8C207 206.2 205.2 208.3 203 210.5L199.1 214.4L203.6 219.7C208 224.8 208.1 225 205.7 225C204 225 201.8 223.4 198.6 219.8L194 214.6V219.7C194 225 193.5 226.1 191.3 225.3Z" fill="#2E338C"/>
<path d="M215.4 224.1C211.8 221.9 209.6 216.6 210.6 212.6C211.6 208.6 216.5 205 220.8 205C226.3 205.1 230 208.8 230 214.4C230 217 229.9 217 222 217H214L215.6 219.5C216.8 221.3 218.1 222 220.6 222C222.4 222 224.2 221.6 224.5 221C225.5 219.4 229 219.8 229 221.6C229 223.2 223.4 226 220.3 226C219.3 226 217.1 225.1 215.4 224.1ZM226 212.6C226 210.5 223.2 208 220.7 208C218.7 208 214 211.6 214 213.2C214 213.6 216.7 214 220 214C224.5 214 226 213.7 226 212.6Z" fill="#2E338C"/>
<path d="M234.6 224.5C233.6 221.7 233.9 206.2 235 205.5C235.6 205.1 236.8 205.4 237.6 206.1C238.7 207 239.4 207 240.2 206.2C242.2 204.2 246 204.7 246 207C246 208.4 245.3 209 243.7 209C239.8 209 238.1 211.9 237.8 218.9C237.5 225.1 235.9 227.9 234.6 224.5Z" fill="#2E338C"/>
<path d="M293.4 224.1C284.3 218.6 288.5 205 299.2 205C303.5 205 307 207.3 305.3 209.1C304.4 210 303.5 210 301.1 209.1C297.4 207.5 294.7 208.8 293 213C291.9 215.8 291.9 216.4 293.7 218.8C295.8 221.7 300.3 222.8 302.4 221.1C303.3 220.4 304 220.4 304.8 221.2C306.6 223 306.3 223.7 302.9 224.9C298.5 226.4 297 226.3 293.4 224.1Z" fill="#2E338C"/>
<path d="M311.5 224.8C308.9 223.3 308 222 308 219.4C308 216.1 311.5 213.8 317 213.2C322 212.7 323.1 211.5 320.8 209.2C319.3 207.7 315.5 207.7 312.8 209.1C311.2 209.9 310.6 209.9 309.9 208.9C307.8 205.4 319.1 203.6 323 206.8C325.1 208.5 325.3 209.4 325.1 217C325 221.6 324.7 225.7 324.4 226C324.1 226.3 323.2 225.7 322.5 224.6C321.2 222.9 321 222.9 318.8 224.4C316.2 226.3 314.3 226.4 311.5 224.8ZM320.6 220.3C322.9 217.2 322.3 216 318.1 216C314 216 311.4 218 312.4 220.5C313.2 222.6 318.9 222.4 320.6 220.3Z" fill="#2E338C"/>
<path d="M334.1 223.8C325.7 218.2 329.2 205 339 205C340.7 205 343 205.5 344.1 206C345.9 207 346 206.7 346 200.5C346 194.7 346.2 194 348 194C349.9 194 350 194.7 350 209.5V225L346.8 224.9C345 224.9 342.2 225.2 340.5 225.5C338.3 226 336.6 225.5 334.1 223.8ZM344.2 220.3C345.3 219.3 346 217.3 346 214.9C346 211.7 345.5 210.8 343.1 209.5C339.3 207.6 335.4 208.9 334 212.5C332.7 216 332.7 216.3 335.1 219.4C337.5 222.4 341.4 222.8 344.2 220.3Z" fill="#2E338C"/>
<path d="M360.4 225C357.2 223.7 354 219.1 354 215.8C354 209.4 358.5 205 365.1 205C369.2 205 374 209.8 374 213.9V217L366.4 216.9C362.3 216.8 358.7 217 358.5 217.2C358.2 217.4 358.7 218.6 359.6 219.8C361.2 222.1 367.3 222.9 368.5 221C368.8 220.5 369.9 220 371 220C374 220 372.3 223.5 368.6 224.8C364.9 226.2 363.3 226.2 360.4 225ZM370 212.8C370 210.8 366.8 208 364.3 208C361.7 208 357.6 211.6 358.5 213C359.4 214.5 370 214.3 370 212.8Z" fill="#2E338C"/>
<path d="M404.6 224.4C404.3 223.5 404 220 404 216.5C404 211.1 403.7 209.9 402 209C399.7 207.8 396.6 209 395.6 211.6C395.3 212.4 395 215.8 395 219.1C395 224.3 394.8 225 393 225C391.2 225 391 224.3 391 217.5C391 211.1 390.7 209.9 389 209C386.7 207.8 383.6 209 382.6 211.6C382.3 212.4 382 215.8 382 219.1C382 224.3 381.8 225 380 225C378.1 225 378 224.3 378 215.6C378 206.5 379.1 203 381 206C381.6 206.9 382.3 206.9 383.8 206.1C386.7 204.6 390.2 204.7 392.7 206.5C394.5 207.8 394.9 207.8 396 206.5C397.9 204.2 403.6 204.6 406 207.2C407.6 209 408 210.7 408 217.1C408 222.8 407.6 224.9 406.6 225.3C405.8 225.6 404.9 225.2 404.6 224.4Z" fill="#2E338C"/>
<path d="M462.4 224.1C458.8 221.9 456.6 216.6 457.6 212.6C458.6 208.5 463.5 205 468.2 205C477 205 481.5 216.3 475.2 222.4C471.4 226 466.4 226.7 462.4 224.1ZM472.2 220.3C474 218.7 474.6 213.5 473.2 211.4C470.5 207.2 463.7 207.9 462 212.5C460.7 216 460.7 216.3 463.1 219.4C465.5 222.4 469.4 222.8 472.2 220.3Z" fill="#2E338C"/>
<path d="M482.9 225.7C482.9 225.6 482.7 221.5 482.4 216.5C481.9 206.7 482.7 203.7 485.5 206C486.7 207 487.4 207 488.2 206.2C490.2 204.2 494 204.7 494 206.9C494 208.3 493.2 209 491.3 209.2C487.8 209.6 486 213 486 219.6C486 223.3 485.6 225 484.5 225.4C483.7 225.7 483 225.8 482.9 225.7Z" fill="#2E338C"/>
<path d="M547.4 222.6C544.6 219.8 544 218.4 544 215C544 209.2 548.1 205 553.9 205C556.1 205 558.2 205.5 558.5 206C560.1 208.5 561 206.5 561 200.5C561 194.7 561.2 194 563 194C564.9 194 565 194.7 565 209.5C565 224.3 564.9 225 563 225C561.9 225 561 224.5 561 224C561 223.4 559.7 223.6 558 224.5C553.6 226.8 551.1 226.3 547.4 222.6ZM559.9 218.8C561.9 215.4 560.5 211.1 556.8 209.1C554.3 207.7 553.9 207.7 551.3 209.6C547.9 212.1 547.3 216 549.6 219.5C552 223.1 557.7 222.7 559.9 218.8Z" fill="#2E338C"/>
<path d="M571.3 224.8C568.9 223.6 568.3 221.6 570 220.5C570.6 220.1 571.7 220.3 572.5 221C574.5 222.6 579.4 221.9 579.8 219.8C580 218.7 578.7 217.7 575.1 216.5C568.6 214.4 567.1 210.9 571 207C573.4 204.6 578.7 204.3 581.6 206.4C584.4 208.6 582.3 210.4 578.5 209C576.5 208.2 575.4 208.3 574.3 209.2C573 210.3 573.1 210.7 575 212.2C576.2 213.2 578 214 579 214C579.9 214 581.4 214.8 582.3 215.8C587.5 221.5 578.9 228.5 571.3 224.8Z" fill="#2E338C"/>
<path d="M41.8 212.3L41.5 199.6H37C33.5 199.5 32.5 199.1 32.2 197.7C31.9 196.1 32.8 196 43.7 196.2C53.4 196.4 55.5 196.8 55.5 198C55.5 199.1 54.3 199.5 51 199.6H46.5L46.2 212.3C46 224.1 45.8 225 44 225C42.2 225 42 224.1 41.8 212.3Z" fill="#2E338C"/>
<path d="M59 210.5V196H68.5C77.3 196 78 196.1 78 198C78 199.8 77.3 200 70.5 200H63V204V207.9L70.3 208.2C75.9 208.4 77.5 208.8 77.5 210C77.5 211.1 75.8 211.6 70.5 212L63.5 212.5V217V221.5L71.3 221.8C77.2 222 79 222.4 79 223.5C79 224.7 77.1 225 69 225H59V210.5Z" fill="#2E338C"/>
<path d="M258 224.7C258 224.5 260.2 219.4 262.8 213.4C265.5 207.4 268.3 201 269.1 199.3C270 197.1 271.2 196 272.6 196C274.7 196 275.1 196.8 285.7 221.8C287 224.9 287 225 284.6 225C282.7 225 281.8 224.2 280.9 221.5L279.6 218H272.4H265.2L264 221.5C263.1 224.2 262.3 225 260.4 225C259.1 225 258 224.9 258 224.7ZM276.6 211.7C275.4 206.8 272.8 201.8 272 202.6C271.5 203.1 270.2 205.9 269.1 208.8L267 214H272.1C276.9 214 277.2 213.9 276.6 211.7Z" fill="#2E338C"/>
<path d="M446 217C446 209.7 445.8 209 444 209C442.7 209 442 208.3 442 207C442 205.7 442.7 205 444 205C445.6 205 446 204.3 446 201.3C446 199.2 446.7 196.7 447.5 195.7C449.1 193.5 455.1 192.9 455.7 194.8C456 195.5 455.4 196 454.3 196C451.5 196 450 198 450 201.7C450 204.3 450.4 205 452 205C453.3 205 454 205.7 454 207C454 208.3 453.3 209 452 209C450.2 209 450 209.7 450 217C450 224.3 449.8 225 448 225C446.2 225 446 224.3 446 217Z" fill="#2E338C"/>
<path d="M510 210.5C510 196.8 510.1 196 512 196C513.6 196 513.9 196.8 514.2 202L514.5 208L520.5 202C525.2 197.4 527.2 196.1 529.5 196.1C532.4 196.1 532.3 196.3 525.5 202.5L518.5 208.8L520.5 211.1C521.6 212.3 524.9 215.9 527.8 218.9C532.9 224.4 533 224.5 530.5 224.8C528.4 225.1 526.6 223.8 521 217.8L514.1 210.5L514 217.8C514 224.3 513.8 225 512 225C510.1 225 510 224.3 510 210.5Z" fill="#2E338C"/>
<path d="M536 215C536 206.8 536.3 205 537.5 205C538.4 205 539 205.9 539 207.3C539.1 212.1 539.2 222.6 539.1 223.8C539 224.4 538.3 225 537.5 225C536.3 225 536 223.2 536 215Z" fill="#2E338C"/>
<path d="M535.7 200.4C535.3 200 535 198.8 535 197.8C535 196.5 535.7 196 537.6 196C539.7 196 540.1 196.4 539.8 198.2C539.5 200.5 537.1 201.7 535.7 200.4Z" fill="#2E338C"/>
<path d="M698.6 194.8L695.8 193.8L696.5 183.6C696.9 178.1 697.4 173.2 697.6 172.8C697.8 172.5 699.6 172.6 701.6 173.1C706 174.4 710.8 172.9 714.1 169.4L716.5 166.8L716.8 107.9L717 49H729.6H742.1L741.8 109.8C741.5 163.8 741.2 171.1 739.7 175.6C737.6 182 733.2 188.1 728.7 190.9C721.4 195.4 705.8 197.4 698.6 194.8Z" fill="#2E338C"/>
<path d="M29 148.4C19.8 147.3 10.8 143.4 4.6 137.8L0.5 134.1L6.5 128.3C17.5 117.7 16.3 118.2 21.1 122.5C27 127.8 32.3 130 39.8 130C46.7 130 53.1 127.5 55 124.1C56.3 121.6 56.3 116.4 55 114.1C53.7 111.5 46 108.5 33.5 105.5C20.1 102.4 15.3 100.3 10.5 95.5C5.5 90.4 3.8 85.9 3.7 77.5C3.7 62.4 12.5 52 29.5 47C34.1 45.7 53.6 46.1 59 47.7C65.1 49.4 70.2 52.2 74.4 56.3L78.5 60.2L74.5 63.8C72.3 65.8 68.5 69.2 66.1 71.3L61.7 75.1L58.6 72.1C53.8 67.6 49.5 65.9 43.1 65.9C31.7 65.8 24.8 73 29.6 79.8C31.6 82.7 35.1 84.1 49 87.5C63.5 91 68.3 93.2 74.1 98.9C79.5 104.2 81 108.5 81 118C80.9 132 72.7 141.4 56 146.8C52.2 148.1 34.7 149.1 29 148.4Z" fill="#2E338C"/>
<path d="M135 148.1C124.2 146.3 118.2 141.2 114.9 131C113.8 127.5 113.5 120 113.5 98.3V70H103.3H93V59.5V49H103H112.9L113.2 34.8L113.5 20.5L125.8 20.2L138 19.9V34.5V49H151.5H165V59.5V70H151.5H138V94C138 117.8 138.4 121.3 141.7 124.7C144.9 128.1 152.7 128.9 160.3 126.6L165 125.2V135.4C165 145.3 164.9 145.7 162.6 146.8C159.5 148.2 140.8 149.1 135 148.1Z" fill="#2E338C"/>
<path d="M221.5 148.1C211.2 146.5 199.4 140.3 192.4 132.7C182.9 122.5 179 112.1 179 97.5C179 82.1 183.2 71.1 192.8 61.2C202.6 51.1 215.6 46 231.2 46C243.4 46 249.9 47.7 258 53.2C270.5 61.5 277.9 77.8 278 97.3V106H240.5H203L203.6 108.8C205.6 117.7 213 125.8 221.3 128.1C226.6 129.5 238.8 128.7 242.9 126.6C244.6 125.7 248.4 123 251.3 120.6L256.6 116.3L265.4 122.8L274.1 129.4L270.3 133.2C265.1 138.6 257.6 143.3 250.4 145.9C243.7 148.2 229.6 149.3 221.5 148.1ZM252.9 82.3C251 72.2 242.6 65.1 231.4 64.2C217.8 63.1 207.7 70.2 204.2 83.3L203.2 87H228.5H253.7L252.9 82.3Z" fill="#2E338C"/>
<path d="M322 148.1C316 147.2 307 142.7 303.2 138.7C297.4 132.6 296 128.8 296 119C296 111.3 296.4 109.4 298.6 105.3C305.5 92.4 320.6 86.4 349.3 85.3L363 84.7V80.8C363 68.2 348.1 60.9 331.5 65.4C325.1 67.1 319.9 69.5 317 72.2L314.8 74.3L308.2 67.6L301.5 61L305 58.1C309.8 54 319.3 49.3 326.3 47.5C329.8 46.6 336.7 46 343.8 46C353.8 46 356.5 46.4 362.4 48.5C371.7 51.9 377.2 56.5 381 64.4C385.2 72.8 386.1 83.6 385.8 118.5L385.5 145.5L374.3 145.8L363 146.1V140V133.8L358.4 138.4C351.9 144.9 344.9 147.9 334.7 148.4C330.2 148.7 324.5 148.5 322 148.1ZM351.5 127.4C354 126.1 356.6 123.5 358.4 120.6C360.9 116.7 361.4 114.8 361.4 109.2L361.5 102.5L352.2 102.7C331.3 103.1 320 108.3 320 117.4C320 122 322.7 126 327.5 128.5C331.9 130.8 346.2 130.2 351.5 127.4Z" fill="#2E338C"/>
<path d="M630.5 148.4C618.7 146.7 608.5 141.7 600.6 133.7C590.2 123.2 586 112.5 586 97C586 82.8 591.1 69.9 600.5 60.7C610.8 50.6 622.6 46 638.5 46C644.2 46 651.3 46.6 654.3 47.4C673 52.3 687.6 67.3 691.5 85.7C693.4 94.3 693.3 99.7 691.5 108.5C686.4 132.3 668.4 147.2 643 148.4C637.8 148.6 632.2 148.6 630.5 148.4ZM651.9 123.7C657.6 121 662.7 115.9 665.4 110.1C668.6 103 668.4 90.2 664.8 83.5C659.7 73.6 650.5 68 639.7 68C624.9 68 614.2 76.8 610.9 91.8C608.9 100.4 612 111 618.4 117.8C626.6 126.6 640.5 129 651.9 123.7Z" fill="#2E338C"/>
<path d="M412 97.5V49H423.5H435L435.1 56.3C435.1 62.3 435.3 63.2 436.3 61.5C438.8 57.3 447.3 49.8 451.6 47.9C458.7 44.9 474.2 45.2 481.2 48.4C487.9 51.5 490.4 53.5 493.8 58.8L496.6 63L500.1 58.4C506.4 49.9 515.3 46 528.7 46C543.9 46 553.6 51.4 559.5 63C563.5 71 564 76.4 564 112V146H552.1H540.1L539.8 114.3C539.5 82.7 539.5 82.5 537 77.5C533.5 70.6 529.4 68 521.6 68C514.1 68 508.7 70.8 505 76.5C500.5 83.4 500 87.9 500 118V146H488H476.1L475.8 113.3C475.5 82.8 475.4 80.2 473.5 76.5C470.6 70.7 466 68 458.9 68C449.1 68 443 71.7 439.1 79.9C436.5 85.5 436.5 85.5 436.2 115.8L435.8 146H423.9H412V97.5Z" fill="#2E338C"/>
<path d="M770.5 144.8C770.2 144.1 770.1 122.4 770.2 96.5L770.5 49.5L782.8 49.2L795 48.9V97.5V146H783C774.3 146 770.8 145.7 770.5 144.8Z" fill="#2E338C"/>
<path d="M818.7 143.2C811.7 135.9 818.7 124 828.6 126.4C836.1 128.3 838.7 138 833.2 143.3C829.2 147.2 822.5 147.1 818.7 143.2ZM831.9 141.1C834.4 137.6 834.5 135.2 832.4 132.2C828.8 127 822.1 126.9 819.5 132C817.5 135.9 817.6 138.2 820.1 141.4C823.1 145.2 829.1 145.1 831.9 141.1Z" fill="#2E338C"/>
<path d="M822 136.4V130.9L825.8 131.2L829.5 131.5L829.7 136.8C829.8 139.6 829.4 142 828.9 142C828.4 142 828 141.1 828 140C828 138.7 827.3 138 826 138C824.7 138 824 138.7 824 140C824 141.1 823.6 142 823 142C822.5 142 822 139.5 822 136.4ZM827.8 134.2C828 133.5 827.2 133 826.1 133C824 133 823.4 134.1 824.7 135.4C825.6 136.3 827.3 135.6 827.8 134.2Z" fill="#2E338C"/>
<path d="M721.2 27C708.3 19.1 714.1 0 729.3 0C742.5 0 750.1 13 742.9 23.1C738.8 28.9 727.7 30.9 721.2 27Z" fill="#2E338C"/>
<path d="M773.9 26.7C761.6 18.5 767.3 0 782.2 0C789.4 0 794.7 3 797.2 8.7C799.5 13.8 799 18.7 795.9 23.1C791.6 29.1 780.3 31 773.9 26.7Z" fill="#2E338C"/>
</svg>
